<?xml version="1.0" encoding="UTF-8" standalone="no"?>
<svg
   xmlns:dc="http://purl.org/dc/elements/1.1/"
   xmlns:cc="http://creativecommons.org/ns#"
   xmlns:rdf="http://www.w3.org/1999/02/22-rdf-syntax-ns#"
   xmlns:svg="http://www.w3.org/2000/svg"
   xmlns="http://www.w3.org/2000/svg"
   xmlns:sodipodi="http://sodipodi.sourceforge.net/DTD/sodipodi-0.dtd"
   xmlns:inkscape="http://www.inkscape.org/namespaces/inkscape"
   version="1.1"
   x="0px"
   y="0px"
   xml:space="preserve"
   id="svg3118"
   inkscape:version="0.48.4 r9939"
   width="501"
   height="501"
   sodipodi:docname="awdd-6-5-14-grid-inkscape.svg"><metadata
   id="metadata3249"><rdf:RDF><cc:Work
       rdf:about=""><dc:format>image/svg+xml</dc:format><dc:type
         rdf:resource="http://purl.org/dc/dcmitype/StillImage" /><dc:title></dc:title></cc:Work></rdf:RDF></metadata><defs
   id="defs3247" /><sodipodi:namedview
   pagecolor="#ffffff"
   bordercolor="#666666"
   borderopacity="1"
   objecttolerance="10"
   gridtolerance="10"
   guidetolerance="10"
   inkscape:pageopacity="0"
   inkscape:pageshadow="2"
   inkscape:window-width="1366"
   inkscape:window-height="705"
   id="namedview3245"
   showgrid="false"
   inkscape:zoom="0.472"
   inkscape:cx="250.5"
   inkscape:cy="291.35816"
   inkscape:window-x="-8"
   inkscape:window-y="-8"
   inkscape:window-maximized="1"
   inkscape:current-layer="svg3118"
   fit-margin-top="0"
   fit-margin-left="0"
   fit-margin-right="0"
   fit-margin-bottom="0" />
<g
   id="Layer_1"
   transform="matrix(0.99800399,0,0,0.99800399,0.499002,1.499002)">
</g>
<g
   id="Grid"
   transform="matrix(0.99800399,0,0,0.99800399,0.499002,1.499002)">
  <g
   id="g3122">
    <g
   id="g3124">
      <rect
   x="-0.5"
   y="0.5"
   width="500"
   height="500"
   id="rect3126"
   style="fill:none" />
    </g>
    <line
   stroke-miterlimit="10"
   x1="0"
   y1="416.5"
   x2="500"
   y2="416.5"
   id="line3128"
   style="stroke:#000000;stroke-miterlimit:10" />
    <line
   stroke-miterlimit="10"
   x1="0"
   y1="333.5"
   x2="500"
   y2="333.5"
   id="line3130"
   style="stroke:#000000;stroke-miterlimit:10" />
    <line
   stroke-miterlimit="10"
   x1="0"
   y1="250.5"
   x2="500"
   y2="250.5"
   id="line3132"
   style="stroke:#000000;stroke-miterlimit:10" />
    <line
   stroke-miterlimit="10"
   x1="0"
   y1="166.5"
   x2="500"
   y2="166.5"
   id="line3134"
   style="stroke:#000000;stroke-miterlimit:10" />
    <line
   stroke-miterlimit="10"
   x1="0"
   y1="83.5"
   x2="500"
   y2="83.5"
   id="line3136"
   style="stroke:#000000;stroke-miterlimit:10" />
    <line
   stroke-miterlimit="10"
   x1="416.5"
   y1="0"
   x2="416.5"
   y2="500"
   id="line3138"
   style="stroke:#000000;stroke-miterlimit:10" />
    <line
   stroke-miterlimit="10"
   x1="333.5"
   y1="0"
   x2="333.5"
   y2="500"
   id="line3140"
   style="stroke:#000000;stroke-miterlimit:10" />
    <line
   stroke-miterlimit="10"
   x1="249.5"
   y1="0"
   x2="249.5"
   y2="500"
   id="line3142"
   style="stroke:#000000;stroke-miterlimit:10" />
    <line
   stroke-miterlimit="10"
   x1="166.5"
   y1="0"
   x2="166.5"
   y2="500"
   id="line3144"
   style="stroke:#000000;stroke-miterlimit:10" />
    <line
   stroke-miterlimit="10"
   x1="83.5"
   y1="0"
   x2="83.5"
   y2="500"
   id="line3146"
   style="stroke:#000000;stroke-miterlimit:10" />
  </g>
  <line
   stroke-miterlimit="10"
   x1="499.5"
   y1="500"
   x2="499.5"
   y2="0"
   id="line3148"
   style="fill:none;stroke:#000000;stroke-miterlimit:10" />
  <line
   stroke-miterlimit="10"
   x1="0.5"
   y1="500"
   x2="0.5"
   y2="0"
   id="line3150"
   style="fill:none;stroke:#000000;stroke-miterlimit:10" />
  <line
   stroke-miterlimit="10"
   x1="0"
   y1="0.5"
   x2="500"
   y2="0.5"
   id="line3152"
   style="fill:none;stroke:#000000;stroke-miterlimit:10" />
  <line
   stroke-miterlimit="10"
   x1="0"
   y1="499.5"
   x2="500"
   y2="499.5"
   id="line3154"
   style="fill:none;stroke:#000000;stroke-miterlimit:10" />
</g>
<g
   id="Text"
   transform="matrix(0.99800399,0,0,0.99800399,0.499002,1.499002)">
  <g
   id="g3157">
    <rect
   x="259"
   y="215.7"
   width="8"
   height="0"
   id="rect3159"
   style="fill:none" />
  </g>
  <g
   id="g3161">
    <rect
   x="256"
   y="237.8"
   width="55.5"
   height="12.3"
   id="rect3163"
   style="fill:none" />
    <path
   d="m 256.6,247.7 v -0.8 l 1,-0.9 c 2.3,-2.2 3.4,-3.4 3.4,-4.8 0,-0.9 -0.4,-1.8 -1.8,-1.8 -0.8,0 -1.5,0.4 -1.9,0.8 l -0.4,-0.9 c 0.6,-0.5 1.5,-0.9 2.6,-0.9 2,0 2.8,1.3 2.8,2.6 0,1.7 -1.2,3 -3.1,4.9 l -0.7,0.7 v 0 h 4.1 v 1 h -6 z"
   id="path3165"
   inkscape:connector-curvature="0" />
    <path
   d="m 269.2,239.6 h -3.5 l -0.4,2.3 c 0.2,0 0.4,-0.1 0.7,-0.1 0.7,0 1.4,0.2 2,0.5 0.7,0.4 1.3,1.2 1.3,2.3 0,1.8 -1.4,3.1 -3.4,3.1 -1,0 -1.8,-0.3 -2.3,-0.6 l 0.3,-0.9 c 0.4,0.2 1.1,0.5 1.9,0.5 1.2,0 2.2,-0.8 2.2,-2 0,-1.2 -0.8,-2 -2.6,-2 -0.5,0 -0.9,0.1 -1.3,0.1 l 0.6,-4.4 h 4.4 v 1.2 z"
   id="path3167"
   inkscape:connector-curvature="0" />
    <path
   d="m 277,243 c 0,3.1 -1.1,4.8 -3.2,4.8 -1.8,0 -3,-1.7 -3,-4.7 0,-3.1 1.3,-4.7 3.2,-4.7 2,0 3,1.7 3,4.6 z m -4.9,0.2 c 0,2.4 0.7,3.7 1.8,3.7 1.3,0 1.9,-1.5 1.9,-3.8 0,-2.2 -0.6,-3.7 -1.8,-3.7 -1.1,0 -1.9,1.3 -1.9,3.8 z"
   id="path3169"
   inkscape:connector-curvature="0" />
    <path
   d="m 277.8,249.4 c 0.3,-0.8 0.7,-2.3 0.8,-3.3 L 280,246 c -0.3,1.2 -0.9,2.7 -1.3,3.4 l -0.9,0 z"
   id="path3171"
   inkscape:connector-curvature="0" />
    <path
   d="m 284,247.7 v -0.8 l 1,-0.9 c 2.3,-2.2 3.4,-3.4 3.4,-4.8 0,-0.9 -0.4,-1.8 -1.8,-1.8 -0.8,0 -1.5,0.4 -1.9,0.8 l -0.4,-0.9 c 0.6,-0.5 1.5,-0.9 2.6,-0.9 2,0 2.8,1.3 2.8,2.6 0,1.7 -1.2,3 -3.1,4.9 l -0.7,0.7 v 0 h 4.1 v 1 h -6 z"
   id="path3173"
   inkscape:connector-curvature="0" />
    <path
   d="m 296.7,239.6 h -3.5 l -0.4,2.3 c 0.2,0 0.4,-0.1 0.7,-0.1 0.7,0 1.4,0.2 2,0.5 0.7,0.4 1.3,1.2 1.3,2.3 0,1.8 -1.4,3.1 -3.4,3.1 -1,0 -1.8,-0.3 -2.3,-0.6 l 0.3,-0.9 c 0.4,0.2 1.1,0.5 1.9,0.5 1.2,0 2.2,-0.8 2.2,-2 0,-1.2 -0.8,-2 -2.6,-2 -0.5,0 -0.9,0.1 -1.3,0.1 l 0.6,-4.4 h 4.4 v 1.2 z"
   id="path3175"
   inkscape:connector-curvature="0" />
    <path
   d="m 304.5,243 c 0,3.1 -1.1,4.8 -3.2,4.8 -1.8,0 -3,-1.7 -3,-4.7 0,-3.1 1.3,-4.7 3.2,-4.7 1.9,0 3,1.7 3,4.6 z m -5,0.2 c 0,2.4 0.7,3.7 1.8,3.7 1.3,0 1.9,-1.5 1.9,-3.8 0,-2.2 -0.6,-3.7 -1.8,-3.7 -1.1,0 -1.9,1.3 -1.9,3.8 z"
   id="path3177"
   inkscape:connector-curvature="0" />
  </g>
  <g
   id="g3179">
    <rect
   x="192.7"
   y="237.8"
   width="55.5"
   height="12.3"
   id="rect3181"
   style="fill:none" />
    <path
   d="m 193.3,247.7 v -0.8 l 1,-0.9 c 2.3,-2.2 3.4,-3.4 3.4,-4.8 0,-0.9 -0.4,-1.8 -1.8,-1.8 -0.8,0 -1.5,0.4 -1.9,0.8 l -0.4,-0.9 c 0.6,-0.5 1.5,-0.9 2.6,-0.9 2,0 2.8,1.3 2.8,2.6 0,1.7 -1.2,3 -3.1,4.9 l -0.7,0.7 v 0 h 4.1 v 1 h -6 z"
   id="path3183"
   inkscape:connector-curvature="0" />
    <path
   d="m 205.9,239.6 h -3.5 l -0.4,2.3 c 0.2,0 0.4,-0.1 0.7,-0.1 0.7,0 1.4,0.2 2,0.5 0.7,0.4 1.3,1.2 1.3,2.3 0,1.8 -1.4,3.1 -3.4,3.1 -1,0 -1.8,-0.3 -2.3,-0.6 l 0.3,-0.9 c 0.4,0.2 1.1,0.5 1.9,0.5 1.2,0 2.2,-0.8 2.2,-2 0,-1.2 -0.8,-2 -2.6,-2 -0.5,0 -0.9,0.1 -1.3,0.1 l 0.6,-4.4 h 4.4 v 1.2 z"
   id="path3185"
   inkscape:connector-curvature="0" />
    <path
   d="m 213.7,243 c 0,3.1 -1.1,4.8 -3.2,4.8 -1.8,0 -3,-1.7 -3,-4.7 0,-3.1 1.3,-4.7 3.2,-4.7 1.9,0 3,1.7 3,4.6 z m -4.9,0.2 c 0,2.4 0.7,3.7 1.8,3.7 1.3,0 1.9,-1.5 1.9,-3.8 0,-2.2 -0.6,-3.7 -1.8,-3.7 -1.1,0 -1.9,1.3 -1.9,3.8 z"
   id="path3187"
   inkscape:connector-curvature="0" />
    <path
   d="m 214.4,249.4 c 0.3,-0.8 0.7,-2.3 0.8,-3.3 l 1.4,-0.1 c -0.3,1.2 -0.9,2.7 -1.3,3.4 l -0.9,0 z"
   id="path3189"
   inkscape:connector-curvature="0" />
    <path
   d="m 220.7,247.7 v -0.8 l 1,-0.9 c 2.3,-2.2 3.4,-3.4 3.4,-4.8 0,-0.9 -0.4,-1.8 -1.8,-1.8 -0.8,0 -1.5,0.4 -1.9,0.8 l -0.4,-0.9 c 0.6,-0.5 1.5,-0.9 2.6,-0.9 2,0 2.8,1.3 2.8,2.6 0,1.7 -1.2,3 -3.1,4.9 l -0.7,0.7 v 0 h 4.1 v 1 h -6 z"
   id="path3191"
   inkscape:connector-curvature="0" />
    <path
   d="m 233.3,239.6 h -3.5 l -0.4,2.3 c 0.2,0 0.4,-0.1 0.7,-0.1 0.7,0 1.4,0.2 2,0.5 0.7,0.4 1.3,1.2 1.3,2.3 0,1.8 -1.4,3.1 -3.4,3.1 -1,0 -1.8,-0.3 -2.3,-0.6 l 0.3,-0.9 c 0.4,0.2 1.1,0.5 1.9,0.5 1.2,0 2.2,-0.8 2.2,-2 0,-1.2 -0.8,-2 -2.6,-2 -0.5,0 -0.9,0.1 -1.3,0.1 l 0.6,-4.4 h 4.4 v 1.2 z"
   id="path3193"
   inkscape:connector-curvature="0" />
    <path
   d="m 241.1,243 c 0,3.1 -1.1,4.8 -3.2,4.8 -1.8,0 -3,-1.7 -3,-4.7 0,-3.1 1.3,-4.7 3.2,-4.7 1.9,0 3,1.7 3,4.6 z m -4.9,0.2 c 0,2.4 0.7,3.7 1.8,3.7 1.3,0 1.9,-1.5 1.9,-3.8 0,-2.2 -0.6,-3.7 -1.8,-3.7 -1.1,0 -1.9,1.3 -1.9,3.8 z"
   id="path3195"
   inkscape:connector-curvature="0" />
  </g>
  <g
   id="g3197">
    <path
   d="m 14.7,489.9 c 0,3.1 -1.1,4.8 -3.2,4.8 -1.8,0 -3,-1.7 -3,-4.7 0,-3.1 1.3,-4.7 3.2,-4.7 1.9,0 3,1.7 3,4.6 z m -5,0.2 c 0,2.4 0.7,3.7 1.8,3.7 1.3,0 1.9,-1.5 1.9,-3.8 0,-2.2 -0.6,-3.7 -1.8,-3.7 -1.1,0 -1.9,1.3 -1.9,3.8 z"
   id="path3199"
   inkscape:connector-curvature="0" />
    <path
   d="m 15.4,496.3 c 0.3,-0.8 0.7,-2.3 0.8,-3.3 l 1.4,-0.1 c -0.3,1.2 -0.9,2.7 -1.3,3.4 l -0.9,0 z"
   id="path3201"
   inkscape:connector-curvature="0" />
    <path
   d="m 27.1,486.5 h -3.5 l -0.4,2.3 c 0.2,0 0.4,-0.1 0.7,-0.1 0.7,0 1.4,0.2 2,0.5 0.7,0.4 1.3,1.2 1.3,2.3 0,1.8 -1.4,3.1 -3.4,3.1 -1,0 -1.8,-0.3 -2.3,-0.6 l 0.3,-0.9 c 0.4,0.2 1.1,0.5 1.9,0.5 1.2,0 2.2,-0.8 2.2,-2 0,-1.2 -0.8,-2 -2.6,-2 -0.5,0 -0.9,0.1 -1.3,0.1 l 0.6,-4.4 H 27 v 1.2 z"
   id="path3203"
   inkscape:connector-curvature="0" />
    <path
   d="m 34.9,489.9 c 0,3.1 -1.1,4.8 -3.2,4.8 -1.8,0 -3,-1.7 -3,-4.7 0,-3.1 1.3,-4.7 3.2,-4.7 1.9,0 3,1.7 3,4.6 z m -4.9,0.2 c 0,2.4 0.7,3.7 1.8,3.7 1.3,0 1.9,-1.5 1.9,-3.8 0,-2.2 -0.6,-3.7 -1.8,-3.7 -1.1,0 -1.9,1.3 -1.9,3.8 z"
   id="path3205"
   inkscape:connector-curvature="0" />
    <path
   d="m 42.1,489.9 c 0,3.1 -1.1,4.8 -3.2,4.8 -1.8,0 -3,-1.7 -3,-4.7 0,-3.1 1.3,-4.7 3.2,-4.7 1.9,0 3,1.7 3,4.6 z m -5,0.2 c 0,2.4 0.7,3.7 1.8,3.7 1.3,0 1.9,-1.5 1.9,-3.8 0,-2.2 -0.6,-3.7 -1.8,-3.7 -1.1,0 -1.9,1.3 -1.9,3.8 z"
   id="path3207"
   inkscape:connector-curvature="0" />
  </g>
  <g
   id="g3209">
    <path
   d="m 451.1,486.5 h -3.5 l -0.4,2.3 c 0.2,0 0.4,-0.1 0.7,-0.1 0.7,0 1.4,0.2 2,0.5 0.7,0.4 1.3,1.2 1.3,2.3 0,1.8 -1.4,3.1 -3.4,3.1 -1,0 -1.8,-0.3 -2.3,-0.6 l 0.3,-0.9 c 0.4,0.2 1.1,0.5 1.9,0.5 1.2,0 2.2,-0.8 2.2,-2 0,-1.2 -0.8,-2 -2.6,-2 -0.5,0 -0.9,0.1 -1.3,0.1 l 0.6,-4.4 h 4.4 v 1.2 z"
   id="path3211"
   inkscape:connector-curvature="0" />
    <path
   d="m 458.9,489.9 c 0,3.1 -1.1,4.8 -3.2,4.8 -1.8,0 -3,-1.7 -3,-4.7 0,-3.1 1.3,-4.7 3.2,-4.7 1.9,0 3,1.7 3,4.6 z m -5,0.2 c 0,2.4 0.7,3.7 1.8,3.7 1.3,0 1.9,-1.5 1.9,-3.8 0,-2.2 -0.6,-3.7 -1.8,-3.7 -1.1,0 -1.9,1.3 -1.9,3.8 z"
   id="path3213"
   inkscape:connector-curvature="0" />
    <path
   d="m 466,489.9 c 0,3.1 -1.1,4.8 -3.2,4.8 -1.8,0 -3,-1.7 -3,-4.7 0,-3.1 1.3,-4.7 3.2,-4.7 2,0 3,1.7 3,4.6 z m -4.9,0.2 c 0,2.4 0.7,3.7 1.8,3.7 1.3,0 1.9,-1.5 1.9,-3.8 0,-2.2 -0.6,-3.7 -1.8,-3.7 -1.1,0 -1.9,1.3 -1.9,3.8 z"
   id="path3215"
   inkscape:connector-curvature="0" />
    <path
   d="m 466.8,496.3 c 0.3,-0.8 0.7,-2.3 0.8,-3.3 l 1.4,-0.1 c -0.3,1.2 -0.9,2.7 -1.3,3.4 l -0.9,0 z"
   id="path3217"
   inkscape:connector-curvature="0" />
    <path
   d="M 478.5,486.5 H 475 l -0.3,2.3 c 0.2,0 0.4,-0.1 0.7,-0.1 0.7,0 1.4,0.2 2,0.5 0.7,0.4 1.3,1.2 1.3,2.3 0,1.8 -1.4,3.1 -3.4,3.1 -1,0 -1.8,-0.3 -2.3,-0.6 l 0.3,-0.9 c 0.4,0.2 1.1,0.5 1.9,0.5 1.2,0 2.2,-0.8 2.2,-2 0,-1.2 -0.8,-2 -2.6,-2 -0.5,0 -0.9,0.1 -1.3,0.1 l 0.6,-4.4 h 4.4 v 1.2 z"
   id="path3219"
   inkscape:connector-curvature="0" />
    <path
   d="m 486.3,489.9 c 0,3.1 -1.1,4.8 -3.2,4.8 -1.8,0 -3,-1.7 -3,-4.7 0,-3.1 1.3,-4.7 3.2,-4.7 1.9,0 3,1.7 3,4.6 z m -5,0.2 c 0,2.4 0.7,3.7 1.8,3.7 1.3,0 1.9,-1.5 1.9,-3.8 0,-2.2 -0.6,-3.7 -1.8,-3.7 -1.1,0 -1.9,1.3 -1.9,3.8 z"
   id="path3221"
   inkscape:connector-curvature="0" />
    <path
   d="m 493.5,489.9 c 0,3.1 -1.1,4.8 -3.2,4.8 -1.8,0 -3,-1.7 -3,-4.7 0,-3.1 1.3,-4.7 3.2,-4.7 1.9,0 3,1.7 3,4.6 z m -5,0.2 c 0,2.4 0.7,3.7 1.8,3.7 1.3,0 1.9,-1.5 1.9,-3.8 0,-2.2 -0.6,-3.7 -1.8,-3.7 -1.1,0 -1.9,1.3 -1.9,3.8 z"
   id="path3223"
   inkscape:connector-curvature="0" />
  </g>
  <g
   id="g3225">
    <path
   d="m 464.7,13.7 c 0,3.1 -1.1,4.8 -3.2,4.8 -1.8,0 -3,-1.7 -3,-4.7 0,-3.1 1.3,-4.7 3.2,-4.7 1.9,0 3,1.7 3,4.6 z m -5,0.1 c 0,2.4 0.7,3.7 1.8,3.7 1.3,0 1.9,-1.5 1.9,-3.8 0,-2.2 -0.6,-3.7 -1.8,-3.7 -1.1,0 -1.9,1.3 -1.9,3.8 z"
   id="path3227"
   inkscape:connector-curvature="0" />
    <path
   d="m 465.4,20.1 c 0.3,-0.8 0.7,-2.3 0.8,-3.3 l 1.4,-0.1 c -0.3,1.2 -0.9,2.7 -1.3,3.4 l -0.9,0 z"
   id="path3229"
   inkscape:connector-curvature="0" />
    <path
   d="m 477.1,10.3 h -3.5 l -0.4,2.3 c 0.2,0 0.4,-0.1 0.7,-0.1 0.7,0 1.4,0.2 2,0.5 0.7,0.4 1.3,1.2 1.3,2.3 0,1.8 -1.4,3.1 -3.4,3.1 -1,0 -1.8,-0.3 -2.3,-0.6 l 0.3,-0.9 c 0.4,0.2 1.1,0.5 1.9,0.5 1.2,0 2.2,-0.8 2.2,-2 0,-1.2 -0.8,-2 -2.6,-2 -0.5,0 -0.9,0.1 -1.3,0.1 l 0.6,-4.4 h 4.4 v 1.2 z"
   id="path3231"
   inkscape:connector-curvature="0" />
    <path
   d="m 484.9,13.7 c 0,3.1 -1.1,4.8 -3.2,4.8 -1.8,0 -3,-1.7 -3,-4.7 0,-3.1 1.3,-4.7 3.2,-4.7 1.9,0 3,1.7 3,4.6 z m -4.9,0.1 c 0,2.4 0.7,3.7 1.8,3.7 1.3,0 1.9,-1.5 1.9,-3.8 0,-2.2 -0.6,-3.7 -1.8,-3.7 -1.1,0 -1.9,1.3 -1.9,3.8 z"
   id="path3233"
   inkscape:connector-curvature="0" />
    <path
   d="m 492.1,13.7 c 0,3.1 -1.1,4.8 -3.2,4.8 -1.8,0 -3,-1.7 -3,-4.7 0,-3.1 1.3,-4.7 3.2,-4.7 1.9,0 3,1.7 3,4.6 z m -5,0.1 c 0,2.4 0.7,3.7 1.8,3.7 1.3,0 1.9,-1.5 1.9,-3.8 0,-2.2 -0.6,-3.7 -1.8,-3.7 -1.1,0 -1.9,1.3 -1.9,3.8 z"
   id="path3235"
   inkscape:connector-curvature="0" />
  </g>
  <g
   id="g3237">
    <path
   d="m 14.7,11.7 c 0,3.1 -1.1,4.8 -3.2,4.8 -1.8,0 -3,-1.7 -3,-4.7 0,-3.1 1.3,-4.7 3.2,-4.7 1.9,0 3,1.7 3,4.6 z m -5,0.1 c 0,2.4 0.7,3.7 1.8,3.7 1.3,0 1.9,-1.5 1.9,-3.8 C 13.4,9.5 12.8,8 11.6,8 10.5,8 9.7,9.3 9.7,11.8 z"
   id="path3239"
   inkscape:connector-curvature="0" />
    <path
   d="m 15.4,18.1 c 0.3,-0.8 0.7,-2.3 0.8,-3.3 l 1.4,-0.1 c -0.3,1.2 -0.9,2.7 -1.3,3.4 l -0.9,0 z"
   id="path3241"
   inkscape:connector-curvature="0" />
    <path
   d="m 27.7,11.7 c 0,3.1 -1.1,4.8 -3.2,4.8 -1.8,0 -3,-1.7 -3,-4.7 0,-3.1 1.3,-4.7 3.2,-4.7 1.9,0 3,1.7 3,4.6 z m -4.9,0.1 c 0,2.4 0.7,3.7 1.8,3.7 1.3,0 1.9,-1.5 1.9,-3.8 C 26.5,9.5 25.9,8 24.7,8 23.6,8 22.8,9.3 22.8,11.8 z"
   id="path3243"
   inkscape:connector-curvature="0" />
  </g>
</g>
</svg>