<?xml version="1.0" encoding="utf-8"?>
<svg version="1.1" xmlns="http://www.w3.org/2000/svg" xmlns:xlink="http://www.w3.org/1999/xlink" x="0px" y="0px"
   viewBox="0 0 500 500" enable-background="new 0 0 500 500" xml:space="preserve">
<g id="Layer_1">
</g>
<g id="Grid">
  <g>
    <g>
      <rect x="-0.5" y="0.5" fill="none" width="500" height="500"/>
    </g>
    <line stroke="#000000" stroke-miterlimit="10" x1="0" y1="416.5" x2="500" y2="416.5"/>
    <line stroke="#000000" stroke-miterlimit="10" x1="0" y1="333.5" x2="500" y2="333.5"/>
    <line stroke="#000000" stroke-miterlimit="10" x1="0" y1="250.5" x2="500" y2="250.5"/>
    <line stroke="#000000" stroke-miterlimit="10" x1="0" y1="166.5" x2="500" y2="166.5"/>
    <line stroke="#000000" stroke-miterlimit="10" x1="0" y1="83.5" x2="500" y2="83.5"/>
    <line stroke="#000000" stroke-miterlimit="10" x1="416.5" y1="0" x2="416.5" y2="500"/>
    <line stroke="#000000" stroke-miterlimit="10" x1="333.5" y1="0" x2="333.5" y2="500"/>
    <line stroke="#000000" stroke-miterlimit="10" x1="249.5" y1="0" x2="249.5" y2="500"/>
    <line stroke="#000000" stroke-miterlimit="10" x1="166.5" y1="0" x2="166.5" y2="500"/>
    <line stroke="#000000" stroke-miterlimit="10" x1="83.5" y1="0" x2="83.5" y2="500"/>
  </g>
  <line fill="none" stroke="#000000" stroke-miterlimit="10" x1="499.5" y1="500" x2="499.5" y2="0"/>
  <line fill="none" stroke="#000000" stroke-miterlimit="10" x1="0.5" y1="500" x2="0.5" y2="0"/>
  <line fill="none" stroke="#000000" stroke-miterlimit="10" x1="0" y1="0.5" x2="500" y2="0.5"/>
  <line fill="none" stroke="#000000" stroke-miterlimit="10" x1="0" y1="499.5" x2="500" y2="499.5"/>
</g>
<g id="Text">
  <g>
    <rect x="259" y="215.7" fill="none" width="8" height="0"/>
  </g>
  <g>
    <rect x="256" y="237.8" fill="none" width="55.5" height="12.3"/>
    <path d="M256.6,247.7v-0.8l1-0.9c2.3-2.2,3.4-3.4,3.4-4.8c0-0.9-0.4-1.8-1.8-1.8c-0.8,0-1.5,0.4-1.9,0.8l-0.4-0.9
      c0.6-0.5,1.5-0.9,2.6-0.9c2,0,2.8,1.3,2.8,2.6c0,1.7-1.2,3-3.1,4.9l-0.7,0.7v0h4.1v1H256.6z"/>
    <path d="M269.2,239.6h-3.5l-0.4,2.3c0.2,0,0.4-0.1,0.7-0.1c0.7,0,1.4,0.2,2,0.5c0.7,0.4,1.3,1.2,1.3,2.3c0,1.8-1.4,3.1-3.4,3.1
      c-1,0-1.8-0.3-2.3-0.6l0.3-0.9c0.4,0.2,1.1,0.5,1.9,0.5c1.2,0,2.2-0.8,2.2-2c0-1.2-0.8-2-2.6-2c-0.5,0-0.9,0.1-1.3,0.1l0.6-4.4
      h4.4V239.6z"/>
    <path d="M277,243c0,3.1-1.1,4.8-3.2,4.8c-1.8,0-3-1.7-3-4.7c0-3.1,1.3-4.7,3.2-4.7C276,238.4,277,240.1,277,243z M272.1,243.2
      c0,2.4,0.7,3.7,1.8,3.7c1.3,0,1.9-1.5,1.9-3.8c0-2.2-0.6-3.7-1.8-3.7C272.9,239.4,272.1,240.7,272.1,243.2z"/>
    <path d="M277.8,249.4c0.3-0.8,0.7-2.3,0.8-3.3l1.4-0.1c-0.3,1.2-0.9,2.7-1.3,3.4L277.8,249.4z"/>
    <path d="M284,247.7v-0.8l1-0.9c2.3-2.2,3.4-3.4,3.4-4.8c0-0.9-0.4-1.8-1.8-1.8c-0.8,0-1.5,0.4-1.9,0.8l-0.4-0.9
      c0.6-0.5,1.5-0.9,2.6-0.9c2,0,2.8,1.3,2.8,2.6c0,1.7-1.2,3-3.1,4.9l-0.7,0.7v0h4.1v1H284z"/>
    <path d="M296.7,239.6h-3.5l-0.4,2.3c0.2,0,0.4-0.1,0.7-0.1c0.7,0,1.4,0.2,2,0.5c0.7,0.4,1.3,1.2,1.3,2.3c0,1.8-1.4,3.1-3.4,3.1
      c-1,0-1.8-0.3-2.3-0.6l0.3-0.9c0.4,0.2,1.1,0.5,1.9,0.5c1.2,0,2.2-0.8,2.2-2c0-1.2-0.8-2-2.6-2c-0.5,0-0.9,0.1-1.3,0.1l0.6-4.4
      h4.4V239.6z"/>
    <path d="M304.5,243c0,3.1-1.1,4.8-3.2,4.8c-1.8,0-3-1.7-3-4.7c0-3.1,1.3-4.7,3.2-4.7C303.4,238.4,304.5,240.1,304.5,243z
       M299.5,243.2c0,2.4,0.7,3.7,1.8,3.7c1.3,0,1.9-1.5,1.9-3.8c0-2.2-0.6-3.7-1.8-3.7C300.3,239.4,299.5,240.7,299.5,243.2z"/>
  </g>
  <g>
    <rect x="192.7" y="237.8" fill="none" width="55.5" height="12.3"/>
    <path d="M193.3,247.7v-0.8l1-0.9c2.3-2.2,3.4-3.4,3.4-4.8c0-0.9-0.4-1.8-1.8-1.8c-0.8,0-1.5,0.4-1.9,0.8l-0.4-0.9
      c0.6-0.5,1.5-0.9,2.6-0.9c2,0,2.8,1.3,2.8,2.6c0,1.7-1.2,3-3.1,4.9l-0.7,0.7v0h4.1v1H193.3z"/>
    <path d="M205.9,239.6h-3.5l-0.4,2.3c0.2,0,0.4-0.1,0.7-0.1c0.7,0,1.4,0.2,2,0.5c0.7,0.4,1.3,1.2,1.3,2.3c0,1.8-1.4,3.1-3.4,3.1
      c-1,0-1.8-0.3-2.3-0.6l0.3-0.9c0.4,0.2,1.1,0.5,1.9,0.5c1.2,0,2.2-0.8,2.2-2c0-1.2-0.8-2-2.6-2c-0.5,0-0.9,0.1-1.3,0.1l0.6-4.4
      h4.4V239.6z"/>
    <path d="M213.7,243c0,3.1-1.1,4.8-3.2,4.8c-1.8,0-3-1.7-3-4.7c0-3.1,1.3-4.7,3.2-4.7C212.6,238.4,213.7,240.1,213.7,243z
       M208.8,243.2c0,2.4,0.7,3.7,1.8,3.7c1.3,0,1.9-1.5,1.9-3.8c0-2.2-0.6-3.7-1.8-3.7C209.6,239.4,208.8,240.7,208.8,243.2z"/>
    <path d="M214.4,249.4c0.3-0.8,0.7-2.3,0.8-3.3l1.4-0.1c-0.3,1.2-0.9,2.7-1.3,3.4L214.4,249.4z"/>
    <path d="M220.7,247.7v-0.8l1-0.9c2.3-2.2,3.4-3.4,3.4-4.8c0-0.9-0.4-1.8-1.8-1.8c-0.8,0-1.5,0.4-1.9,0.8l-0.4-0.9
      c0.6-0.5,1.5-0.9,2.6-0.9c2,0,2.8,1.3,2.8,2.6c0,1.7-1.2,3-3.1,4.9l-0.7,0.7v0h4.1v1H220.7z"/>
    <path d="M233.3,239.6h-3.5l-0.4,2.3c0.2,0,0.4-0.1,0.7-0.1c0.7,0,1.4,0.2,2,0.5c0.7,0.4,1.3,1.2,1.3,2.3c0,1.8-1.4,3.1-3.4,3.1
      c-1,0-1.8-0.3-2.3-0.6l0.3-0.9c0.4,0.2,1.1,0.5,1.9,0.5c1.2,0,2.2-0.8,2.2-2c0-1.2-0.8-2-2.6-2c-0.5,0-0.9,0.1-1.3,0.1l0.6-4.4
      h4.4V239.6z"/>
    <path d="M241.1,243c0,3.1-1.1,4.8-3.2,4.8c-1.8,0-3-1.7-3-4.7c0-3.1,1.3-4.7,3.2-4.7C240,238.4,241.1,240.1,241.1,243z
       M236.2,243.2c0,2.4,0.7,3.7,1.8,3.7c1.3,0,1.9-1.5,1.9-3.8c0-2.2-0.6-3.7-1.8-3.7C237,239.4,236.2,240.7,236.2,243.2z"/>
  </g>
  <g>
    <path d="M14.7,489.9c0,3.1-1.1,4.8-3.2,4.8c-1.8,0-3-1.7-3-4.7c0-3.1,1.3-4.7,3.2-4.7C13.6,485.3,14.7,487,14.7,489.9z M9.7,490.1
      c0,2.4,0.7,3.7,1.8,3.7c1.3,0,1.9-1.5,1.9-3.8c0-2.2-0.6-3.7-1.8-3.7C10.5,486.3,9.7,487.6,9.7,490.1z"/>
    <path d="M15.4,496.3c0.3-0.8,0.7-2.3,0.8-3.3l1.4-0.1c-0.3,1.2-0.9,2.7-1.3,3.4L15.4,496.3z"/>
    <path d="M27.1,486.5h-3.5l-0.4,2.3c0.2,0,0.4-0.1,0.7-0.1c0.7,0,1.4,0.2,2,0.5c0.7,0.4,1.3,1.2,1.3,2.3c0,1.8-1.4,3.1-3.4,3.1
      c-1,0-1.8-0.3-2.3-0.6l0.3-0.9c0.4,0.2,1.1,0.5,1.9,0.5c1.2,0,2.2-0.8,2.2-2c0-1.2-0.8-2-2.6-2c-0.5,0-0.9,0.1-1.3,0.1l0.6-4.4
      h4.4V486.5z"/>
    <path d="M34.9,489.9c0,3.1-1.1,4.8-3.2,4.8c-1.8,0-3-1.7-3-4.7c0-3.1,1.3-4.7,3.2-4.7C33.8,485.3,34.9,487,34.9,489.9z M30,490.1
      c0,2.4,0.7,3.7,1.8,3.7c1.3,0,1.9-1.5,1.9-3.8c0-2.2-0.6-3.7-1.8-3.7C30.8,486.3,30,487.6,30,490.1z"/>
    <path d="M42.1,489.9c0,3.1-1.1,4.8-3.2,4.8c-1.8,0-3-1.7-3-4.7c0-3.1,1.3-4.7,3.2-4.7C41,485.3,42.1,487,42.1,489.9z M37.1,490.1
      c0,2.4,0.7,3.7,1.8,3.7c1.3,0,1.9-1.5,1.9-3.8c0-2.2-0.6-3.7-1.8-3.7C37.9,486.3,37.1,487.6,37.1,490.1z"/>
  </g>
  <g>
    <path d="M451.1,486.5h-3.5l-0.4,2.3c0.2,0,0.4-0.1,0.7-0.1c0.7,0,1.4,0.2,2,0.5c0.7,0.4,1.3,1.2,1.3,2.3c0,1.8-1.4,3.1-3.4,3.1
      c-1,0-1.8-0.3-2.3-0.6l0.3-0.9c0.4,0.2,1.1,0.5,1.9,0.5c1.2,0,2.2-0.8,2.2-2c0-1.2-0.8-2-2.6-2c-0.5,0-0.9,0.1-1.3,0.1l0.6-4.4
      h4.4V486.5z"/>
    <path d="M458.9,489.9c0,3.1-1.1,4.8-3.2,4.8c-1.8,0-3-1.7-3-4.7c0-3.1,1.3-4.7,3.2-4.7C457.8,485.3,458.9,487,458.9,489.9z
       M453.9,490.1c0,2.4,0.7,3.7,1.8,3.7c1.3,0,1.9-1.5,1.9-3.8c0-2.2-0.6-3.7-1.8-3.7C454.7,486.3,453.9,487.6,453.9,490.1z"/>
    <path d="M466,489.9c0,3.1-1.1,4.8-3.2,4.8c-1.8,0-3-1.7-3-4.7c0-3.1,1.3-4.7,3.2-4.7C465,485.3,466,487,466,489.9z M461.1,490.1
      c0,2.4,0.7,3.7,1.8,3.7c1.3,0,1.9-1.5,1.9-3.8c0-2.2-0.6-3.7-1.8-3.7C461.9,486.3,461.1,487.6,461.1,490.1z"/>
    <path d="M466.8,496.3c0.3-0.8,0.7-2.3,0.8-3.3l1.4-0.1c-0.3,1.2-0.9,2.7-1.3,3.4L466.8,496.3z"/>
    <path d="M478.5,486.5H475l-0.3,2.3c0.2,0,0.4-0.1,0.7-0.1c0.7,0,1.4,0.2,2,0.5c0.7,0.4,1.3,1.2,1.3,2.3c0,1.8-1.4,3.1-3.4,3.1
      c-1,0-1.8-0.3-2.3-0.6l0.3-0.9c0.4,0.2,1.1,0.5,1.9,0.5c1.2,0,2.2-0.8,2.2-2c0-1.2-0.8-2-2.6-2c-0.5,0-0.9,0.1-1.3,0.1l0.6-4.4
      h4.4V486.5z"/>
    <path d="M486.3,489.9c0,3.1-1.1,4.8-3.2,4.8c-1.8,0-3-1.7-3-4.7c0-3.1,1.3-4.7,3.2-4.7C485.2,485.3,486.3,487,486.3,489.9z
       M481.3,490.1c0,2.4,0.7,3.7,1.8,3.7c1.3,0,1.9-1.5,1.9-3.8c0-2.2-0.6-3.7-1.8-3.7C482.1,486.3,481.3,487.6,481.3,490.1z"/>
    <path d="M493.5,489.9c0,3.1-1.1,4.8-3.2,4.8c-1.8,0-3-1.7-3-4.7c0-3.1,1.3-4.7,3.2-4.7C492.4,485.3,493.5,487,493.5,489.9z
       M488.5,490.1c0,2.4,0.7,3.7,1.8,3.7c1.3,0,1.9-1.5,1.9-3.8c0-2.2-0.6-3.7-1.8-3.7C489.3,486.3,488.5,487.6,488.5,490.1z"/>
  </g>
  <g>
    <path d="M464.7,13.7c0,3.1-1.1,4.8-3.2,4.8c-1.8,0-3-1.7-3-4.7c0-3.1,1.3-4.7,3.2-4.7C463.6,9.1,464.7,10.8,464.7,13.7z
       M459.7,13.8c0,2.4,0.7,3.7,1.8,3.7c1.3,0,1.9-1.5,1.9-3.8c0-2.2-0.6-3.7-1.8-3.7C460.5,10,459.7,11.3,459.7,13.8z"/>
    <path d="M465.4,20.1c0.3-0.8,0.7-2.3,0.8-3.3l1.4-0.1c-0.3,1.2-0.9,2.7-1.3,3.4L465.4,20.1z"/>
    <path d="M477.1,10.3h-3.5l-0.4,2.3c0.2,0,0.4-0.1,0.7-0.1c0.7,0,1.4,0.2,2,0.5c0.7,0.4,1.3,1.2,1.3,2.3c0,1.8-1.4,3.1-3.4,3.1
      c-1,0-1.8-0.3-2.3-0.6l0.3-0.9c0.4,0.2,1.1,0.5,1.9,0.5c1.2,0,2.2-0.8,2.2-2c0-1.2-0.8-2-2.6-2c-0.5,0-0.9,0.1-1.3,0.1l0.6-4.4
      h4.4V10.3z"/>
    <path d="M484.9,13.7c0,3.1-1.1,4.8-3.2,4.8c-1.8,0-3-1.7-3-4.7c0-3.1,1.3-4.7,3.2-4.7C483.8,9.1,484.9,10.8,484.9,13.7z M480,13.8
      c0,2.4,0.7,3.7,1.8,3.7c1.3,0,1.9-1.5,1.9-3.8c0-2.2-0.6-3.7-1.8-3.7C480.8,10,480,11.3,480,13.8z"/>
    <path d="M492.1,13.7c0,3.1-1.1,4.8-3.2,4.8c-1.8,0-3-1.7-3-4.7c0-3.1,1.3-4.7,3.2-4.7C491,9.1,492.1,10.8,492.1,13.7z M487.1,13.8
      c0,2.4,0.7,3.7,1.8,3.7c1.3,0,1.9-1.5,1.9-3.8c0-2.2-0.6-3.7-1.8-3.7C487.9,10,487.1,11.3,487.1,13.8z"/>
  </g>
  <g>
    <path d="M14.7,11.7c0,3.1-1.1,4.8-3.2,4.8c-1.8,0-3-1.7-3-4.7c0-3.1,1.3-4.7,3.2-4.7C13.6,7.1,14.7,8.8,14.7,11.7z M9.7,11.8
      c0,2.4,0.7,3.7,1.8,3.7c1.3,0,1.9-1.5,1.9-3.8c0-2.2-0.6-3.7-1.8-3.7C10.5,8,9.7,9.3,9.7,11.8z"/>
    <path d="M15.4,18.1c0.3-0.8,0.7-2.3,0.8-3.3l1.4-0.1c-0.3,1.2-0.9,2.7-1.3,3.4L15.4,18.1z"/>
    <path d="M27.7,11.7c0,3.1-1.1,4.8-3.2,4.8c-1.8,0-3-1.7-3-4.7c0-3.1,1.3-4.7,3.2-4.7C26.6,7.1,27.7,8.8,27.7,11.7z M22.8,11.8
      c0,2.4,0.7,3.7,1.8,3.7c1.3,0,1.9-1.5,1.9-3.8c0-2.2-0.6-3.7-1.8-3.7C23.6,8,22.8,9.3,22.8,11.8z"/>
  </g>
</g>
</svg>
