<?xml version="1.0" encoding="utf-8"?>
<!DOCTYPE svg PUBLIC "-//W3C//DTD SVG 1.1//EN" "http://www.w3.org/Graphics/SVG/1.1/DTD/svg11.dtd">
<svg version="1.1" xmlns="http://www.w3.org/2000/svg" xmlns:xlink="http://www.w3.org/1999/xlink" x="0px" y="0px"
	 viewBox="0 0 500 500" enable-background="new 0 0 500 500" xml:space="preserve">
<g id="Layer_1">
</g>
<g id="Grid">
	<g>
		<g>
			<rect x="0.5" y="1" fill="none" width="498.5" height="498.5"/>
		</g>
		<line stroke="#000000" stroke-miterlimit="10" x1="1" y1="415.5" x2="499" y2="415.5"/>
		<line stroke="#000000" stroke-miterlimit="10" x1="1" y1="333.5" x2="499" y2="333.5"/>
		<line stroke="#000000" stroke-miterlimit="10" x1="1" y1="250.5" x2="499" y2="250.5"/>
		<line stroke="#000000" stroke-miterlimit="10" x1="1" y1="165.5" x2="499" y2="165.5"/>
		<line stroke="#000000" stroke-miterlimit="10" x1="1" y1="82.5" x2="499" y2="82.5"/>
		<line stroke="#000000" stroke-miterlimit="10" x1="416.5" y1="1" x2="416.5" y2="499"/>
		<line stroke="#000000" stroke-miterlimit="10" x1="333.5" y1="1" x2="333.5" y2="499"/>
		<line stroke="#000000" stroke-miterlimit="10" x1="249.5" y1="1" x2="249.5" y2="499"/>
		<line stroke="#000000" stroke-miterlimit="10" x1="166.5" y1="1" x2="166.5" y2="499"/>
		<line stroke="#000000" stroke-miterlimit="10" x1="84.5" y1="1" x2="84.5" y2="499"/>
	</g>
</g>
<g id="Text">
	<g>
	</g>
	<g>
		<rect x="256" y="235.8" fill="none" width="55.5" height="12.3"/>
		<path d="M256.6,245.7v-0.8l1-0.9c2.3-2.2,3.4-3.4,3.4-4.8c0-0.9-0.4-1.8-1.8-1.8c-0.8,0-1.5,0.4-1.9,0.8l-0.4-0.9
			c0.6-0.5,1.5-0.9,2.6-0.9c2,0,2.8,1.3,2.8,2.6c0,1.7-1.2,3-3.1,4.9l-0.7,0.7v0h4.1v1H256.6z"/>
		<path d="M269.2,237.6h-3.5l-0.4,2.3c0.2,0,0.4-0.1,0.7-0.1c0.7,0,1.4,0.2,2,0.5c0.7,0.4,1.3,1.2,1.3,2.3c0,1.8-1.4,3.1-3.4,3.1
			c-1,0-1.8-0.3-2.3-0.6l0.3-0.9c0.4,0.2,1.1,0.5,1.9,0.5c1.2,0,2.2-0.8,2.2-2c0-1.2-0.8-2-2.6-2c-0.5,0-0.9,0.1-1.3,0.1l0.6-4.4
			h4.4V237.6z"/>
		<path d="M277,241c0,3.1-1.1,4.8-3.2,4.8c-1.8,0-3-1.7-3-4.7c0-3.1,1.3-4.7,3.2-4.7C276,236.4,277,238.1,277,241z M272.1,241.2
			c0,2.4,0.7,3.7,1.8,3.7c1.3,0,1.9-1.5,1.9-3.8c0-2.2-0.6-3.7-1.8-3.7C272.9,237.4,272.1,238.7,272.1,241.2z"/>
		<path d="M277.8,247.4c0.3-0.8,0.7-2.3,0.8-3.3l1.4-0.1c-0.3,1.2-0.9,2.7-1.3,3.4L277.8,247.4z"/>
		<path d="M284,245.7v-0.8l1-0.9c2.3-2.2,3.4-3.4,3.4-4.8c0-0.9-0.4-1.8-1.8-1.8c-0.8,0-1.5,0.4-1.9,0.8l-0.4-0.9
			c0.6-0.5,1.5-0.9,2.6-0.9c2,0,2.8,1.3,2.8,2.6c0,1.7-1.2,3-3.1,4.9l-0.7,0.7v0h4.1v1H284z"/>
		<path d="M296.7,237.6h-3.5l-0.4,2.3c0.2,0,0.4-0.1,0.7-0.1c0.7,0,1.4,0.2,2,0.5c0.7,0.4,1.3,1.2,1.3,2.3c0,1.8-1.4,3.1-3.4,3.1
			c-1,0-1.8-0.3-2.3-0.6l0.3-0.9c0.4,0.2,1.1,0.5,1.9,0.5c1.2,0,2.2-0.8,2.2-2c0-1.2-0.8-2-2.6-2c-0.5,0-0.9,0.1-1.3,0.1l0.6-4.4
			h4.4V237.6z"/>
		<path d="M304.5,241c0,3.1-1.1,4.8-3.2,4.8c-1.8,0-3-1.7-3-4.7c0-3.1,1.3-4.7,3.2-4.7C303.4,236.4,304.5,238.1,304.5,241z
			 M299.5,241.2c0,2.4,0.7,3.7,1.8,3.7c1.3,0,1.9-1.5,1.9-3.8c0-2.2-0.6-3.7-1.8-3.7C300.3,237.4,299.5,238.7,299.5,241.2z"/>
	</g>
	<g>
		<rect x="192.7" y="235.8" fill="none" width="55.5" height="12.3"/>
		<path d="M193.3,245.7v-0.8l1-0.9c2.3-2.2,3.4-3.4,3.4-4.8c0-0.9-0.4-1.8-1.8-1.8c-0.8,0-1.5,0.4-1.9,0.8l-0.4-0.9
			c0.6-0.5,1.5-0.9,2.6-0.9c2,0,2.8,1.3,2.8,2.6c0,1.7-1.2,3-3.1,4.9l-0.7,0.7v0h4.1v1H193.3z"/>
		<path d="M205.9,237.6h-3.5l-0.4,2.3c0.2,0,0.4-0.1,0.7-0.1c0.7,0,1.4,0.2,2,0.5c0.7,0.4,1.3,1.2,1.3,2.3c0,1.8-1.4,3.1-3.4,3.1
			c-1,0-1.8-0.3-2.3-0.6l0.3-0.9c0.4,0.2,1.1,0.5,1.9,0.5c1.2,0,2.2-0.8,2.2-2c0-1.2-0.8-2-2.6-2c-0.5,0-0.9,0.1-1.3,0.1l0.6-4.4
			h4.4V237.6z"/>
		<path d="M213.7,241c0,3.1-1.1,4.8-3.2,4.8c-1.8,0-3-1.7-3-4.7c0-3.1,1.3-4.7,3.2-4.7C212.6,236.4,213.7,238.1,213.7,241z
			 M208.8,241.2c0,2.4,0.7,3.7,1.8,3.7c1.3,0,1.9-1.5,1.9-3.8c0-2.2-0.6-3.7-1.8-3.7C209.6,237.4,208.8,238.7,208.8,241.2z"/>
		<path d="M214.4,247.4c0.3-0.8,0.7-2.3,0.8-3.3l1.4-0.1c-0.3,1.2-0.9,2.7-1.3,3.4L214.4,247.4z"/>
		<path d="M220.7,245.7v-0.8l1-0.9c2.3-2.2,3.4-3.4,3.4-4.8c0-0.9-0.4-1.8-1.8-1.8c-0.8,0-1.5,0.4-1.9,0.8l-0.4-0.9
			c0.6-0.5,1.5-0.9,2.6-0.9c2,0,2.8,1.3,2.8,2.6c0,1.7-1.2,3-3.1,4.9l-0.7,0.7v0h4.1v1H220.7z"/>
		<path d="M233.3,237.6h-3.5l-0.4,2.3c0.2,0,0.4-0.1,0.7-0.1c0.7,0,1.4,0.2,2,0.5c0.7,0.4,1.3,1.2,1.3,2.3c0,1.8-1.4,3.1-3.4,3.1
			c-1,0-1.8-0.3-2.3-0.6l0.3-0.9c0.4,0.2,1.1,0.5,1.9,0.5c1.2,0,2.2-0.8,2.2-2c0-1.2-0.8-2-2.6-2c-0.5,0-0.9,0.1-1.3,0.1l0.6-4.4
			h4.4V237.6z"/>
		<path d="M241.1,241c0,3.1-1.1,4.8-3.2,4.8c-1.8,0-3-1.7-3-4.7c0-3.1,1.3-4.7,3.2-4.7C240,236.4,241.1,238.1,241.1,241z
			 M236.2,241.2c0,2.4,0.7,3.7,1.8,3.7c1.3,0,1.9-1.5,1.9-3.8c0-2.2-0.6-3.7-1.8-3.7C237,237.4,236.2,238.7,236.2,241.2z"/>
	</g>
	<g>
		<path d="M11.1,489.9c0,3.1-1.1,4.8-3.2,4.8c-1.8,0-3-1.7-3-4.7c0-3.1,1.3-4.7,3.2-4.7C10,485.3,11.1,487,11.1,489.9z M6.1,490.1
			c0,2.4,0.7,3.7,1.8,3.7c1.3,0,1.9-1.5,1.9-3.8c0-2.2-0.6-3.7-1.8-3.7C6.9,486.3,6.1,487.6,6.1,490.1z"/>
		<path d="M11.8,496.3c0.3-0.8,0.7-2.3,0.8-3.3l1.4-0.1c-0.3,1.2-0.9,2.7-1.3,3.4L11.8,496.3z"/>
		<path d="M23.5,486.5H20l-0.4,2.3c0.2,0,0.4-0.1,0.7-0.1c0.7,0,1.4,0.2,2,0.5c0.7,0.4,1.3,1.2,1.3,2.3c0,1.8-1.4,3.1-3.4,3.1
			c-1,0-1.8-0.3-2.3-0.6l0.3-0.9c0.4,0.2,1.1,0.5,1.9,0.5c1.2,0,2.2-0.8,2.2-2c0-1.2-0.8-2-2.6-2c-0.5,0-0.9,0.1-1.3,0.1l0.6-4.4
			h4.4V486.5z"/>
		<path d="M31.3,489.9c0,3.1-1.1,4.8-3.2,4.8c-1.8,0-3-1.7-3-4.7c0-3.1,1.3-4.7,3.2-4.7C30.2,485.3,31.3,487,31.3,489.9z
			 M26.4,490.1c0,2.4,0.7,3.7,1.8,3.7c1.3,0,1.9-1.5,1.9-3.8c0-2.2-0.6-3.7-1.8-3.7C27.2,486.3,26.4,487.6,26.4,490.1z"/>
		<path d="M38.5,489.9c0,3.1-1.1,4.8-3.2,4.8c-1.8,0-3-1.7-3-4.7c0-3.1,1.3-4.7,3.2-4.7C37.4,485.3,38.5,487,38.5,489.9z
			 M33.6,490.1c0,2.4,0.7,3.7,1.8,3.7c1.3,0,1.9-1.5,1.9-3.8c0-2.2-0.6-3.7-1.8-3.7C34.3,486.3,33.6,487.6,33.6,490.1z"/>
	</g>
	<g>
		<path d="M454,486.5h-3.5l-0.3,2.3c0.2,0,0.4-0.1,0.7-0.1c0.7,0,1.4,0.2,2,0.5c0.7,0.4,1.3,1.2,1.3,2.3c0,1.8-1.4,3.1-3.4,3.1
			c-1,0-1.8-0.3-2.3-0.6l0.3-0.9c0.4,0.2,1.1,0.5,1.9,0.5c1.2,0,2.2-0.8,2.2-2c0-1.2-0.8-2-2.6-2c-0.5,0-0.9,0.1-1.3,0.1l0.6-4.4
			h4.4V486.5z"/>
		<path d="M461.8,489.9c0,3.1-1.1,4.8-3.2,4.8c-1.8,0-3-1.7-3-4.7c0-3.1,1.3-4.7,3.2-4.7C460.7,485.3,461.8,487,461.8,489.9z
			 M456.8,490.1c0,2.4,0.7,3.7,1.8,3.7c1.3,0,1.9-1.5,1.9-3.8c0-2.2-0.6-3.7-1.8-3.7C457.6,486.3,456.8,487.6,456.8,490.1z"/>
		<path d="M469,489.9c0,3.1-1.1,4.8-3.2,4.8c-1.8,0-3-1.7-3-4.7c0-3.1,1.3-4.7,3.2-4.7C467.9,485.3,469,487,469,489.9z M464,490.1
			c0,2.4,0.7,3.7,1.8,3.7c1.3,0,1.9-1.5,1.9-3.8c0-2.2-0.6-3.7-1.8-3.7C464.8,486.3,464,487.6,464,490.1z"/>
		<path d="M469.7,496.3c0.3-0.8,0.7-2.3,0.8-3.3l1.4-0.1c-0.3,1.2-0.9,2.7-1.3,3.4L469.7,496.3z"/>
		<path d="M481.4,486.5h-3.5l-0.3,2.3c0.2,0,0.4-0.1,0.7-0.1c0.7,0,1.4,0.2,2,0.5c0.7,0.4,1.3,1.2,1.3,2.3c0,1.8-1.4,3.1-3.4,3.1
			c-1,0-1.8-0.3-2.3-0.6l0.3-0.9c0.4,0.2,1.1,0.5,1.9,0.5c1.2,0,2.2-0.8,2.2-2c0-1.2-0.8-2-2.6-2c-0.5,0-0.9,0.1-1.3,0.1l0.6-4.4
			h4.4V486.5z"/>
		<path d="M489.2,489.9c0,3.1-1.1,4.8-3.2,4.8c-1.8,0-3-1.7-3-4.7c0-3.1,1.3-4.7,3.2-4.7C488.1,485.3,489.2,487,489.2,489.9z
			 M484.2,490.1c0,2.4,0.7,3.7,1.8,3.7c1.3,0,1.9-1.5,1.9-3.8c0-2.2-0.6-3.7-1.8-3.7C485,486.3,484.2,487.6,484.2,490.1z"/>
		<path d="M496.4,489.9c0,3.1-1.1,4.8-3.2,4.8c-1.8,0-3-1.7-3-4.7c0-3.1,1.3-4.7,3.2-4.7C495.3,485.3,496.4,487,496.4,489.9z
			 M491.4,490.1c0,2.4,0.7,3.7,1.8,3.7c1.3,0,1.9-1.5,1.9-3.8c0-2.2-0.6-3.7-1.8-3.7C492.2,486.3,491.4,487.6,491.4,490.1z"/>
	</g>
	<g>
		<path d="M469,13.7c0,3.1-1.1,4.8-3.2,4.8c-1.8,0-3-1.7-3-4.7c0-3.1,1.3-4.7,3.2-4.7C467.9,9.1,469,10.8,469,13.7z M464,13.8
			c0,2.4,0.7,3.7,1.8,3.7c1.3,0,1.9-1.5,1.9-3.8c0-2.2-0.6-3.7-1.8-3.7C464.8,10,464,11.3,464,13.8z"/>
		<path d="M469.7,20.1c0.3-0.8,0.7-2.3,0.8-3.3l1.4-0.1c-0.3,1.2-0.9,2.7-1.3,3.4L469.7,20.1z"/>
		<path d="M481.4,10.3h-3.5l-0.4,2.3c0.2,0,0.4-0.1,0.7-0.1c0.7,0,1.4,0.2,2,0.5c0.7,0.4,1.3,1.2,1.3,2.3c0,1.8-1.4,3.1-3.4,3.1
			c-1,0-1.8-0.3-2.3-0.6l0.3-0.9c0.4,0.2,1.1,0.5,1.9,0.5c1.2,0,2.2-0.8,2.2-2c0-1.2-0.8-2-2.6-2c-0.5,0-0.9,0.1-1.3,0.1l0.6-4.4
			h4.4V10.3z"/>
		<path d="M489.2,13.7c0,3.1-1.1,4.8-3.2,4.8c-1.8,0-3-1.7-3-4.7c0-3.1,1.3-4.7,3.2-4.7C488.1,9.1,489.2,10.8,489.2,13.7z
			 M484.2,13.8c0,2.4,0.7,3.7,1.8,3.7c1.3,0,1.9-1.5,1.9-3.8c0-2.2-0.6-3.7-1.8-3.7C485,10,484.2,11.3,484.2,13.8z"/>
		<path d="M496.4,13.7c0,3.1-1.1,4.8-3.2,4.8c-1.8,0-3-1.7-3-4.7c0-3.1,1.3-4.7,3.2-4.7C495.3,9.1,496.4,10.8,496.4,13.7z
			 M491.4,13.8c0,2.4,0.7,3.7,1.8,3.7c1.3,0,1.9-1.5,1.9-3.8c0-2.2-0.6-3.7-1.8-3.7C492.2,10,491.4,11.3,491.4,13.8z"/>
	</g>
	<g>
		<path d="M11.1,11.7c0,3.1-1.1,4.8-3.2,4.8c-1.8,0-3-1.7-3-4.7c0-3.1,1.3-4.7,3.2-4.7C10,7.1,11.1,8.8,11.1,11.7z M6.1,11.8
			c0,2.4,0.7,3.7,1.8,3.7c1.3,0,1.9-1.5,1.9-3.8C9.9,9.5,9.3,8,8,8C6.9,8,6.1,9.3,6.1,11.8z"/>
		<path d="M11.8,18.1c0.3-0.8,0.7-2.3,0.8-3.3l1.4-0.1c-0.3,1.2-0.9,2.7-1.3,3.4L11.8,18.1z"/>
		<path d="M24.1,11.7c0,3.1-1.1,4.8-3.2,4.8c-1.8,0-3-1.7-3-4.7c0-3.1,1.3-4.7,3.2-4.7C23,7.1,24.1,8.8,24.1,11.7z M19.2,11.8
			c0,2.4,0.7,3.7,1.8,3.7c1.3,0,1.9-1.5,1.9-3.8c0-2.2-0.6-3.7-1.8-3.7C20,8,19.2,9.3,19.2,11.8z"/>
	</g>
</g>
<g id="Layer_4">
	<rect x="1" y="1" fill="none" stroke="#000000" stroke-width="2" stroke-miterlimit="10" width="499" height="499"/>
</g>
</svg>
