<?xml version="1.0" encoding="utf-8"?>
<!DOCTYPE svg PUBLIC "-//W3C//DTD SVG 1.1//EN" "http://www.w3.org/Graphics/SVG/1.1/DTD/svg11.dtd">
<svg version="1.1" xmlns="http://www.w3.org/2000/svg" xmlns:xlink="http://www.w3.org/1999/xlink" x="0px" y="0px"
   viewBox="0 0 500 500" enable-background="new 0 0 500 500" xml:space="preserve">
<g id="Layer_1">
</g>
<g id="Grid">
  <g>
    <rect x="0.5" y="2" fill="none" width="498.5" height="494.6"/>
    <line stroke="#000000" stroke-miterlimit="10" x1="1" y1="412.5" x2="499" y2="412.5"/>
    <line stroke="#000000" stroke-miterlimit="10" x1="1" y1="331.5" x2="499" y2="331.5"/>
    <line stroke="#000000" stroke-miterlimit="10" x1="1" y1="249.5" x2="499" y2="249.5"/>
    <line stroke="#000000" stroke-miterlimit="10" x1="1" y1="165.5" x2="499" y2="165.5"/>
    <line stroke="#000000" stroke-miterlimit="10" x1="1" y1="83.5" x2="499" y2="83.5"/>
    <line stroke="#000000" stroke-miterlimit="10" x1="416.5" y1="2" x2="416.5" y2="496"/>
    <line stroke="#000000" stroke-miterlimit="10" x1="333.5" y1="2" x2="333.5" y2="496"/>
    <line stroke="#000000" stroke-miterlimit="10" x1="249.5" y1="2" x2="249.5" y2="496"/>
    <line stroke="#000000" stroke-miterlimit="10" x1="166.5" y1="2" x2="166.5" y2="496"/>
    <line stroke="#000000" stroke-miterlimit="10" x1="84.5" y1="2" x2="84.5" y2="496"/>
  </g>
</g>
<g id="Text">
  <rect x="259" y="215.7" fill="none" width="8" height="0"/>
  <rect x="256" y="235.8" fill="none" width="55.5" height="12.3"/>
  <text transform="matrix(1 0 0 1 256 245.6899)" font-family="'MyriadPro-Regular'" font-size="14">250, 250</text>
  <rect x="192.7" y="235.8" fill="none" width="55.5" height="12.3"/>
  <text transform="matrix(1 0 0 1 192.6667 245.6899)" font-family="'MyriadPro-Regular'" font-size="14">250, 250</text>
  <text transform="matrix(1 0 0 1 8 494.583)" font-family="'MyriadPro-Regular'" font-size="14">0, 500</text>
  <text transform="matrix(1 0 0 1 445 494.583)" font-family="'MyriadPro-Regular'" font-size="14">500, 500</text>
  <text transform="matrix(1 0 0 1 458 18.3335)" font-family="'MyriadPro-Regular'" font-size="14">0, 500</text>
  <text transform="matrix(1 0 0 1 8 16.3333)" font-family="'MyriadPro-Regular'" font-size="14">0, 0</text>
</g>
<g id="Layer_4">
  <rect x="1.5" y="1.5" fill="none" stroke="#000000" stroke-miterlimit="10" width="498" height="495"/>
</g>
</svg>
