<svg xmlns="http://www.w3.org/2000/svg" version="1.1" viewBox="0 0 700 500"><g transform="matrix(1.017973,0,0,1.0021632,-5.8262572,-1.0816457)"><path fill="#fd6400" d="M60.202,497.75c0.787-1.24,68.378-110.14,150.2-242,81.83-131.86,149.07-239.73,149.44-239.7,0.61,0.043,297.24,480.82,297.99,482.99,0.22,0.61-109,0.96-299.36,0.96h-299.7l1.4315-2.25z"/><path fill="#050302" d="M59.7,498.65c0.44-0.74,68.04-109.66,150.23-242.04,118.47-190.84,149.67-240.42,150.62-239.4,1.28,1.38,297.45,481.67,297.45,482.37,0,0.23-134.8,0.42-299.55,0.42-250.88,0-299.42-0.21885-298.75-1.3471zm587.13-5.5348c-1.25-3.32-286.51-464.96-287.19-464.78-0.47,0.127-65.65,104.62-144.83,232.2s-144.19,232.3-144.45,232.71c-0.263,0.41,129.41,0.75,288.16,0.75,166.25,0,288.5-0.37396,288.31-0.88191zm-301.93-84.109c-12.835-6.7836-16.062-25.183-6.3103-35.977,4.6878-5.1889,8.9735-7.032,16.351-7.032,13.101,0,21.331,8.4658,21.371,21.983,0.0301,10.241-3.72,17.113-11.522,21.114-4.9909,2.5595-14.964,2.5152-19.89-0.0883zm-3.2337-71.676c-1.3692-1.3692-0.59874-12.342,1.2975-18.478,2.9914-9.6794,6.9019-14.939,24.184-32.526,18.145-18.466,21.034-23.051,20.985-33.305-0.0578-12.09-5.1546-20.931-14.782-25.641-4.8427-2.3693-7.3547-2.8931-15.431-3.2175-14.433-0.57971-25.41,3.263-37.068,12.977l-4.648,3.8727-7.2911-6.8298-7.2911-6.8298,6.939-5.7437c7.8205-6.4733,21.976-13.852,30.899-16.106,7.835-1.9796,27.004-1.9562,35.487,0.0433,15.042,3.5453,27.574,12.892,33.032,24.636,3.7811,8.1344,5.3613,17.969,4.1229,25.659-1.9935,12.378-5.6673,17.821-26.094,38.656-18.374,18.742-22.181,24.853-22.849,36.684l-0.4,6.82h-10.22c-5.6213,0-10.52-0.3-10.887-0.66667z"/></g></svg>