<svg xmlns="http://www.w3.org/2000/svg" width="25" height="14" viewBox="0 0 25 14"><g fill="#FCF54A"><path d="M3.835 14.514c0-.007 9.445-14.243 9.452-14.247.006-.003 9.458 14.235 9.458 14.247 0 .002-4.255.004-9.455.004s-9.455-.002-9.455-.004z"/><path d="M3.835 14.514c0-.007 9.445-14.243 9.452-14.247.006-.003 9.458 14.235 9.458 14.247 0 .002-4.255.004-9.455.004s-9.455-.002-9.455-.004z"/><path d="M3.835 14.514c0-.007 9.445-14.243 9.452-14.247.006-.003 9.458 14.235 9.458 14.247 0 .002-4.255.004-9.455.004s-9.455-.002-9.455-.004z"/><path d="M3.835 14.514c0-.007 9.445-14.243 9.452-14.247.006-.003 9.458 14.235 9.458 14.247 0 .002-4.255.004-9.455.004s-9.455-.002-9.455-.004z"/><path d="M5.732 13.554m15.108-.013l.018.028"/><path d="M5.732 13.554m15.108-.013l.018.028"/><path d="M5.732 13.554m15.108-.013l.018.028"/><path d="M5.732 13.554m15.108-.013l.018.028"/><path d="M5.732 13.554m15.108-.013l.018.028"/><path d="M5.732 13.554m15.108-.013l.018.028"/><path d="M5.732 13.554m15.108-.013l.018.028"/></g></svg>