<?xml version="1.0" encoding="utf-8"?>
<!-- Generator: Adobe Illustrator 17.1.0, SVG Export Plug-In . SVG Version: 6.00 Build 0)  -->
<!DOCTYPE svg PUBLIC "-//W3C//DTD SVG 1.1//EN" "http://www.w3.org/Graphics/SVG/1.1/DTD/svg11.dtd">
<svg version="1.1"
	 id="svg2" xmlns:dc="http://purl.org/dc/elements/1.1/" xmlns:rdf="http://www.w3.org/1999/02/22-rdf-syntax-ns#" xmlns:svg="http://www.w3.org/2000/svg"
	 xmlns="http://www.w3.org/2000/svg" xmlns:xlink="http://www.w3.org/1999/xlink" x="0px" y="0px" width="25px" height="14px"
	 viewBox="0 0 25 14" enable-background="new 0 0 25 14" xml:space="preserve">
<g id="layer1" transform="matrix(0.0178477,0,0,0.0178477,0.89337423,-2.4623507)">
	<g id="g3240" transform="matrix(0.53333333,0,0,0.53333333,356.8542,348.45918)">
		<path id="path3262" fill="#93FBFE" d="M-342.7,1075.7c0-0.7,944.5-1424.3,945.2-1424.7c0.6-0.3,945.8,1423.5,945.8,1424.7
			c0,0.2-425.5,0.4-945.5,0.4S-342.7,1075.9-342.7,1075.7L-342.7,1075.7z"/>
		<path id="path3260" fill="#F0E9B2" d="M-342.7,1075.7c0-0.7,944.5-1424.3,945.2-1424.7c0.6-0.3,945.8,1423.5,945.8,1424.7
			c0,0.2-425.5,0.4-945.5,0.4S-342.7,1075.9-342.7,1075.7L-342.7,1075.7z M641,618.8c-20-30.4-37.2-56.4-37.8-57.1
			c-0.5-0.6-33.2,47.6-39.3,57.9c-0.7,1.1,5.7,1.4,38.9,1.4h39.7L641,618.8L641,618.8z M595.2,604.6c0-0.3,1.7-3,3.7-6.1
			c4.2-6.3,3.5-6.5,9.1,2.8l2.3,3.8h-7.6C598.6,605.1,595.2,604.8,595.2,604.6L595.2,604.6z"/>
		<path id="path3258" fill="#B0BACD" d="M-342.7,1075.7c0-0.7,944.5-1424.3,945.2-1424.7c0.6-0.3,945.8,1423.5,945.8,1424.7
			c0,0.2-425.5,0.4-945.5,0.4S-342.7,1075.9-342.7,1075.7L-342.7,1075.7z M729.2,664.6c0-0.3-119.6-181.3-126.4-191.2
			c-0.2-0.2-126,189.7-126.4,190.8c-0.2,0.5,51.8,0.9,126.3,0.9C672.3,665.1,729.2,664.9,729.2,664.6L729.2,664.6z M535.9,633.7
			c3.3-5.6,66.7-100.6,66.9-100.4c0.3,0.3,65.4,98.3,66.7,100.5c0.6,1-13,1.3-66.8,1.3C546.4,635.1,535.3,634.8,535.9,633.7z
			 M641,618.8c-20-30.4-37.2-56.4-37.8-57.1c-0.5-0.6-33.2,47.6-39.3,57.9c-0.7,1.1,5.7,1.4,38.9,1.4h39.7L641,618.8L641,618.8z
			 M595.2,604.6c0-0.3,1.7-3,3.7-6.1c4.2-6.3,3.5-6.5,9.1,2.8l2.3,3.8h-7.6C598.6,605.1,595.2,604.8,595.2,604.6L595.2,604.6z"/>
		<path id="path3256" fill="#FEFE00" d="M-342.7,1075.7c0-0.7,944.5-1424.3,945.2-1424.7c0.6-0.3,945.8,1423.5,945.8,1424.7
			c0,0.2-425.5,0.4-945.5,0.4S-342.7,1075.9-342.7,1075.7L-342.7,1075.7z M850.2,725.4c0-1.7-247.4-373.3-248.1-372.7
			c-0.4,0.4-52.7,79.1-116.1,174.8c-63.4,95.8-119.1,179.6-123.6,186.3l-8.2,12.3h248C738.6,726.1,850.2,725.8,850.2,725.4z
			 M404.9,699.9c2.7-4.4,196.7-296.5,197.3-297.1c0.4-0.4,45,65.9,99.1,147.5c54.1,81.6,98.8,148.9,99.3,149.6
			c0.7,1-39,1.3-197.7,1.3C447.7,701.1,404.3,700.8,404.9,699.9z M729.2,664.6c0-0.3-119.6-181.3-126.4-191.2
			c-0.2-0.2-126,189.7-126.4,190.8c-0.2,0.5,51.8,0.9,126.3,0.9C672.3,665.1,729.2,664.9,729.2,664.6L729.2,664.6z M535.9,633.7
			c3.3-5.6,66.7-100.6,66.9-100.4c0.3,0.3,65.4,98.3,66.7,100.5c0.6,1-13,1.3-66.8,1.3C546.4,635.1,535.3,634.8,535.9,633.7z
			 M641,618.8c-20-30.4-37.2-56.4-37.8-57.1c-0.5-0.6-33.2,47.6-39.3,57.9c-0.7,1.1,5.7,1.4,38.9,1.4h39.7
			C642.5,621,641,618.8,641,618.8z"/>
		<path id="path3254" fill="#188BFE" d="M-153,979.7c0.4-0.8,170.7-257.5,378.3-570.4l377.5-569l8.5,12.7
			c8.1,12.2,742.9,1119.8,746.5,1125.4l1.8,2.7H602.8C-48.6,981.1-153.6,980.9-153,979.7L-153,979.7z M850.2,725.4
			c0-1.7-247.4-373.3-248.1-372.7c-0.4,0.4-52.7,79.1-116.1,174.8c-63.4,95.8-119.1,179.6-123.6,186.3l-8.2,12.2h248
			C738.6,726.1,850.2,725.8,850.2,725.4z M404.9,699.9c2.7-4.4,196.7-296.5,197.3-297.1c0.4-0.4,45,65.9,99.1,147.5
			c54.1,81.6,98.8,148.9,99.3,149.6c0.7,1-39,1.3-197.7,1.3C447.7,701.1,404.3,700.8,404.9,699.9z M729.2,664.6
			c0-0.3-119.6-181.3-126.4-191.2c-0.2-0.2-126,189.7-126.4,190.8c-0.2,0.5,51.8,0.9,126.3,0.9C672.3,665.1,729.2,664.9,729.2,664.6
			L729.2,664.6z M535.9,633.7c3.3-5.6,66.7-100.6,66.9-100.4c0.3,0.3,65.4,98.3,66.7,100.5c0.6,1-13,1.3-66.8,1.3
			C546.4,635.1,535.3,634.8,535.9,633.7z M641,618.8c-20-30.4-37.2-56.4-37.8-57.1c-0.5-0.6-33.2,47.6-39.3,57.9
			c-0.7,1.1,5.7,1.4,38.9,1.4h39.7L641,618.8L641,618.8z"/>
		<path id="path3252" fill="#9EED15" d="M-153,979.7c0.4-0.8,170.7-257.5,378.3-570.4l377.5-569l8.5,12.7
			c8.1,12.2,742.9,1119.8,746.5,1125.4l1.8,2.7H602.8C-48.6,981.1-153.6,980.9-153,979.7L-153,979.7z M989,793.8
			c-0.8-1.2-78.8-118.8-173.3-261.3c-94.5-142.4-181.1-273-192.4-290.1l-20.6-31.1l-192,289.4C305.1,660,217.9,791.6,216.9,793.2
			l-1.8,2.9h387.7h387.7L989,793.8L989,793.8z M293.4,756.1c0.4-1.1,309.3-466.9,309.4-466.7c9.4,13.9,309.4,466.8,309.4,467.1
			c0,0.3-139.3,0.5-309.6,0.5C402.9,757.1,293.2,756.7,293.4,756.1L293.4,756.1z M850.2,725.4c0-1.7-247.4-373.3-248.1-372.7
			c-0.4,0.4-52.7,79.1-116.1,174.8c-63.4,95.8-119.1,179.6-123.6,186.3l-8.2,12.2h248C738.6,726.1,850.2,725.8,850.2,725.4z
			 M404.9,699.9c2.7-4.4,196.7-296.5,197.3-297.1c0.4-0.4,45,65.9,99.1,147.5c54.1,81.6,98.8,148.9,99.3,149.6
			c0.7,1-39,1.3-197.7,1.3C447.7,701.1,404.3,700.8,404.9,699.9z M729.2,664.6c0-0.3-119.6-181.3-126.4-191.2
			c-0.2-0.2-126,189.7-126.4,190.8c-0.2,0.5,51.8,0.9,126.3,0.9C672.3,665.1,729.2,664.9,729.2,664.6L729.2,664.6z M535.9,633.7
			c3.3-5.6,66.7-100.6,66.9-100.4c0.3,0.3,65.4,98.3,66.7,100.5c0.6,1-13,1.3-66.8,1.3C546.4,635.1,535.3,634.8,535.9,633.7z
			 M641,618.8c-20-30.4-37.2-56.4-37.8-57.1c-0.5-0.6-33.2,47.6-39.3,57.9c-0.7,1.1,5.7,1.4,38.9,1.4h39.7L641,618.8L641,618.8z"/>
		<path id="path3250" fill="#CB625E" d="M-153,979.7c0.4-0.8,170.7-257.5,378.3-570.4l377.5-569l8.5,12.7
			c8.1,12.2,742.9,1119.8,746.5,1125.4l1.8,2.7H602.8C-48.6,981.1-153.6,980.9-153,979.7L-153,979.7z M989,793.8
			c-0.8-1.2-78.8-118.8-173.3-261.3c-94.5-142.4-181.1-273-192.4-290.1l-20.6-31.1l-192,289.4C305.1,660,217.9,791.6,216.9,793.2
			l-1.8,2.9h387.7h387.7L989,793.8L989,793.8z M293.4,756.1c0.4-1.1,309.3-466.9,309.4-466.7c9.4,13.9,309.4,466.8,309.4,467.1
			c0,0.3-139.3,0.5-309.6,0.5C402.9,757.1,293.2,756.7,293.4,756.1L293.4,756.1z M850.2,725.4c0-1.7-247.4-373.3-248.1-372.7
			c-0.4,0.4-52.7,79.1-116.1,174.8c-63.4,95.8-119.1,179.6-123.6,186.3l-8.2,12.2h248C738.6,726.1,850.2,725.8,850.2,725.4z
			 M404.9,699.9c2.7-4.4,196.7-296.5,197.3-297.1c0.4-0.4,45,65.9,99.1,147.5c54.1,81.6,98.8,148.9,99.3,149.6
			c0.7,1-39,1.3-197.7,1.3C447.7,701.1,404.3,700.8,404.9,699.9z M729.2,664.6c0-0.3-119.6-181.3-126.4-191.2
			c-0.2-0.2-126,189.7-126.4,190.8c-0.2,0.5,51.8,0.9,126.3,0.9C672.3,665.1,729.2,664.9,729.2,664.6L729.2,664.6z"/>
		<path id="path3248" fill="#862DA1" d="M-153,979.7c0.4-0.8,170.7-257.5,378.3-570.4l377.5-569l8.5,12.7
			c8.1,12.2,742.9,1119.8,746.5,1125.4l1.8,2.7H602.8C-48.6,981.1-153.6,980.9-153,979.7L-153,979.7z M989,793.8
			c-0.8-1.2-78.8-118.8-173.3-261.3c-94.5-142.4-181.1-273-192.4-290.1l-20.6-31.1l-192,289.4C305.1,660,217.9,791.6,216.9,793.2
			l-1.8,2.9h387.7h387.7L989,793.8L989,793.8z M293.4,756.1c0.4-1.1,309.3-466.9,309.4-466.7c9.4,13.9,309.4,466.8,309.4,467.1
			c0,0.3-139.3,0.5-309.6,0.5C402.9,757.1,293.2,756.7,293.4,756.1L293.4,756.1z M850.2,725.4c0-1.7-247.4-373.3-248.1-372.7
			c-0.4,0.4-52.7,79.1-116.1,174.8c-63.4,95.8-119.1,179.6-123.6,186.3l-8.2,12.2h248C738.6,726.1,850.2,725.8,850.2,725.4z"/>
		<path id="path3246" fill="#202CDA" d="M-153,979.7c0.4-0.8,170.7-257.5,378.3-570.4l377.5-569l8.5,12.7
			c8.1,12.2,742.9,1119.8,746.5,1125.4l1.8,2.7H602.8C-48.6,981.1-153.6,980.9-153,979.7L-153,979.7z M989,793.8
			c-0.8-1.2-78.8-118.8-173.3-261.3c-94.5-142.4-181.1-273-192.4-290.1l-20.6-31.1l-192,289.4C305.1,660,217.9,791.6,216.9,793.2
			l-1.8,2.9h387.7h387.7L989,793.8L989,793.8z"/>
		<path id="path3244" fill="#ED0D1A" d="M-153,979.7c0.4-0.8,170.7-257.5,378.3-570.4l377.5-569l8.5,12.7
			c8.1,12.2,742.9,1119.8,746.5,1125.4l1.8,2.7H602.8C-48.6,981.1-153.6,980.9-153,979.7L-153,979.7z M1201.4,894.8
			c-3.8-5.6-140-211-302.7-456.3S602.9-7.5,602.9-7.6c-0.1-0.1-485.1,730.8-573.8,864.8l-31.7,47.9h605.5h605.5L1201.4,894.8
			L1201.4,894.8z M119.2,843.5c0-0.3,108.8-164.6,241.7-365l241.7-364.4l17.1,25.7c51.8,77.7,466.5,703.2,466.5,703.7
			c0,0.3-217.6,0.5-483.5,0.5S119.2,843.8,119.2,843.5L119.2,843.5z M989,793.8c-0.8-1.2-78.8-118.8-173.3-261.3
			c-94.5-142.4-181.1-273-192.4-290.1l-20.6-31.1l-192,289.4C305.1,660,217.9,791.6,216.9,793.2l-1.8,2.9h387.7h387.7L989,793.8
			L989,793.8z"/>
		<path id="path3242" fill="#0CA13C" d="M-153,979.7c0.4-0.8,170.7-257.5,378.3-570.4l377.5-569l8.5,12.7
			c8.1,12.2,742.9,1119.8,746.5,1125.4l1.8,2.7H602.8C-48.6,981.1-153.6,980.9-153,979.7L-153,979.7z M1201.4,894.8
			c-3.8-5.6-140-211-302.7-456.3S602.9-7.5,602.9-7.6c-0.1-0.1-485.1,730.8-573.8,864.8l-31.7,47.9h605.5h605.5L1201.4,894.8
			L1201.4,894.8z"/>
		<path id="path3023" fill="#93FBFE" d="M602.2,593.5c-2.9,3-5,6.7-7.2,10.3c-0.7,2,2.2,1.7,3.4,1.7c3.9,0,7.8,0.3,11.7-0.1
			c1.1-1.4-1-2.8-1.4-4.1c-1.9-2.5-2.9-5.7-5.5-7.6C602.9,593.4,602.6,593.3,602.2,593.5L602.2,593.5z"/>
	</g>
</g>
</svg>
