<?xml version="1.0" encoding="UTF-8" standalone="no"?>
<svg
   xmlns:dc="http://purl.org/dc/elements/1.1/"
   xmlns:cc="http://creativecommons.org/ns#"
   xmlns:rdf="http://www.w3.org/1999/02/22-rdf-syntax-ns#"
   xmlns:svg="http://www.w3.org/2000/svg"
   xmlns="http://www.w3.org/2000/svg"
   xmlns:sodipodi="http://sodipodi.sourceforge.net/DTD/sodipodi-0.dtd"
   xmlns:inkscape="http://www.inkscape.org/namespaces/inkscape"
   version="1.1"
   id="svg2"
   x="0px"
   y="0px"
   viewBox="0 0 20 14"
   enable-background="new 0 0 1024 1024"
   xml:space="preserve"
   width="20px"
   height="14px"
   inkscape:export-xdpi="2.1972656"
   inkscape:export-ydpi="2.1972656"><metadata
   id="metadata3027"><rdf:RDF><cc:Work
       rdf:about=""><dc:format>image/svg+xml</dc:format><dc:type
         rdf:resource="http://purl.org/dc/dcmitype/StillImage" /><dc:title></dc:title></cc:Work></rdf:RDF></metadata><defs
   id="defs3025" /><sodipodi:namedview
   pagecolor="#ffffff"
   bordercolor="#666666"
   borderopacity="1"
   objecttolerance="10"
   gridtolerance="10"
   guidetolerance="10"
   inkscape:pageopacity="0"
   inkscape:pageshadow="2"
   inkscape:window-width="1366"
   inkscape:window-height="705"
   id="namedview3023"
   showgrid="false"
   inkscape:zoom="16.1875"
   inkscape:cx="17.553323"
   inkscape:cy="7.4520029"
   inkscape:window-x="-8"
   inkscape:window-y="-8"
   inkscape:window-maximized="1"
   inkscape:current-layer="svg2"
   fit-margin-top="0"
   fit-margin-left="0"
   fit-margin-right="0"
   fit-margin-bottom="0" />


<g
   id="layer1"
   transform="matrix(0.0178477,0,0,0.0178477,0.89337423,-2.4623507)">
    <g
   id="g3240"
   transform="matrix(0.53333333,0,0,0.53333333,356.8542,348.45918)">
    <path
   id="path3262"
   d="m -657.9,1075.7 c 0,-0.7 944.5,-1424.3 945.2,-1424.7 0.6,-0.3 945.8,1423.5 945.8,1424.7 0,0.2 -425.5,0.4 -945.5,0.4 -520,0 -945.5,-0.2 -945.5,-0.4 l 0,0 z"
   inkscape:connector-curvature="0"
   style="fill:#93fbfe" />
    <path
   id="path3260"
   d="m -657.9,1075.7 c 0,-0.7 944.5,-1424.3 945.2,-1424.7 0.6,-0.3 945.8,1423.5 945.8,1424.7 0,0.2 -425.5,0.4 -945.5,0.4 -520,0 -945.5,-0.2 -945.5,-0.4 l 0,0 z M 325.9,618.8 c -20,-30.4 -37.2,-56.4 -37.8,-57.1 -0.5,-0.6 -33.2,47.6 -39.3,57.9 -0.7,1.1 5.7,1.4 38.9,1.4 h 39.7 l -1.5,-2.2 0,0 z m -45.8,-14.2 c 0,-0.3 1.7,-3 3.7,-6.1 4.2,-6.3 3.5,-6.5 9.1,2.8 l 2.3,3.8 h -7.6 c -4.1,0 -7.5,-0.3 -7.5,-0.5 l 0,0 z"
   inkscape:connector-curvature="0"
   style="fill:#f0e9b2" />
    <path
   id="path3258"
   d="m -657.9,1075.7 c 0,-0.7 944.5,-1424.3 945.2,-1424.7 0.6,-0.3 945.8,1423.5 945.8,1424.7 0,0.2 -425.5,0.4 -945.5,0.4 -520,0 -945.5,-0.2 -945.5,-0.4 l 0,0 z m 1072,-411.1 c 0,-0.3 -119.6,-181.3 -126.4,-191.2 -0.2,-0.2 -126,189.7 -126.4,190.8 -0.2,0.5 51.8,0.9 126.3,0.9 69.6,0 126.5,-0.2 126.5,-0.5 l 0,0 z M 220.8,633.7 c 3.3,-5.6 66.7,-100.6 66.9,-100.4 0.3,0.3 65.4,98.3 66.7,100.5 0.6,1 -13,1.3 -66.8,1.3 -56.3,0 -67.4,-0.3 -66.8,-1.4 z m 105.1,-14.9 c -20,-30.4 -37.2,-56.4 -37.8,-57.1 -0.5,-0.6 -33.2,47.6 -39.3,57.9 -0.7,1.1 5.7,1.4 38.9,1.4 h 39.7 l -1.5,-2.2 0,0 z m -45.8,-14.2 c 0,-0.3 1.7,-3 3.7,-6.1 4.2,-6.3 3.5,-6.5 9.1,2.8 l 2.3,3.8 h -7.6 c -4.1,0 -7.5,-0.3 -7.5,-0.5 l 0,0 z"
   inkscape:connector-curvature="0"
   style="fill:#b0bacd" />
      <path
   id="path3256"
   sodipodi:nodetypes="ssssssssscsscsscscsccssccsscscsscs"
   d="m -657.9,1075.7 c 0,-0.7 944.5,-1424.3 945.2,-1424.7 0.6,-0.3 945.8,1423.5 945.8,1424.7 0,0.2 -425.5,0.4 -945.5,0.4 -520,0 -945.5,-0.2 -945.5,-0.4 l 0,0 z M 535.1,725.4 C 535.1,723.7 287.7,352.1 287,352.7 286.6,353.1 234.3,431.8 170.9,527.5 107.5,623.3 51.8,707.1 47.3,713.8 l -8.2,12.3 h 248 c 136.4,0 248,-0.3 248,-0.7 z M 89.8,699.9 c 2.7,-4.4 196.7,-296.5 197.3,-297.1 0.4,-0.4 45,65.9 99.1,147.5 54.1,81.6 98.8,148.9 99.3,149.6 0.7,1 -39,1.3 -197.7,1.3 -155.2,-0.1 -198.6,-0.4 -198,-1.3 z m 324.3,-35.3 c 0,-0.3 -119.6,-181.3 -126.4,-191.2 -0.2,-0.2 -126,189.7 -126.4,190.8 -0.2,0.5 51.8,0.9 126.3,0.9 69.6,0 126.5,-0.2 126.5,-0.5 l 0,0 z M 220.8,633.7 c 3.3,-5.6 66.7,-100.6 66.9,-100.4 0.3,0.3 65.4,98.3 66.7,100.5 0.6,1 -13,1.3 -66.8,1.3 -56.3,0 -67.4,-0.3 -66.8,-1.4 z m 105.1,-14.9 c -20,-30.4 -37.2,-56.4 -37.8,-57.1 -0.5,-0.6 -33.2,47.6 -39.3,57.9 -0.7,1.1 5.7,1.4 38.9,1.4 h 39.7 l -1.5,-2.2 z"
   inkscape:connector-curvature="0"
   style="fill:#fefe00" />
    <path
   id="path3254"
   d="m -468.2,979.7 c 0.4,-0.8 170.7,-257.5 378.3,-570.4 l 377.5,-569 8.5,12.7 c 8.1,12.2 742.9,1119.8 746.5,1125.4 l 1.8,2.7 H 287.7 c -651.4,0 -756.5,-0.2 -755.9,-1.4 l 0,0 z M 535.1,725.4 C 535.1,723.7 287.7,352.1 287,352.7 286.6,353.1 234.3,431.8 170.9,527.5 107.5,623.3 51.8,707.1 47.3,713.8 L 39.1,726 h 248 c 136.4,0.1 248,-0.2 248,-0.6 z M 89.8,699.9 c 2.7,-4.4 196.7,-296.5 197.3,-297.1 0.4,-0.4 45,65.9 99.1,147.5 54.1,81.6 98.8,148.9 99.3,149.6 0.7,1 -39,1.3 -197.7,1.3 -155.2,-0.1 -198.6,-0.4 -198,-1.3 z m 324.3,-35.3 c 0,-0.3 -119.6,-181.3 -126.4,-191.2 -0.2,-0.2 -126,189.7 -126.4,190.8 -0.2,0.5 51.8,0.9 126.3,0.9 69.6,0 126.5,-0.2 126.5,-0.5 l 0,0 z M 220.8,633.7 c 3.3,-5.6 66.7,-100.6 66.9,-100.4 0.3,0.3 65.4,98.3 66.7,100.5 0.6,1 -13,1.3 -66.8,1.3 -56.3,0 -67.4,-0.3 -66.8,-1.4 z m 105.1,-14.9 c -20,-30.4 -37.2,-56.4 -37.8,-57.1 -0.5,-0.6 -33.2,47.6 -39.3,57.9 -0.7,1.1 5.7,1.4 38.9,1.4 h 39.7 l -1.5,-2.2 0,0 z"
   inkscape:connector-curvature="0"
   style="fill:#188bfe" />
    <path
   id="path3252"
   d="m -468.2,979.7 c 0.4,-0.8 170.7,-257.5 378.3,-570.4 l 377.5,-569 8.5,12.7 c 8.1,12.2 742.9,1119.8 746.5,1125.4 l 1.8,2.7 H 287.7 c -651.4,0 -756.5,-0.2 -755.9,-1.4 l 0,0 z M 673.9,793.8 C 673.1,792.6 595.1,675 500.6,532.5 406.1,390.1 319.5,259.5 308.2,242.4 L 287.6,211.3 95.6,500.7 C -10,660 -97.2,791.6 -98.2,793.2 l -1.8,2.9 h 387.7 387.7 l -1.5,-2.3 0,0 z M -21.7,756.1 c 0.4,-1.1 309.3,-466.9 309.4,-466.7 9.4,13.9 309.4,466.8 309.4,467.1 0,0.3 -139.3,0.5 -309.6,0.5 -199.7,0.1 -309.4,-0.3 -309.2,-0.9 l 0,0 z M 535.1,725.4 C 535.1,723.7 287.7,352.1 287,352.7 286.6,353.1 234.3,431.8 170.9,527.5 107.5,623.3 51.8,707.1 47.3,713.8 L 39.1,726 h 248 c 136.4,0.1 248,-0.2 248,-0.6 z M 89.8,699.9 c 2.7,-4.4 196.7,-296.5 197.3,-297.1 0.4,-0.4 45,65.9 99.1,147.5 54.1,81.6 98.8,148.9 99.3,149.6 0.7,1 -39,1.3 -197.7,1.3 -155.2,-0.1 -198.6,-0.4 -198,-1.3 z m 324.3,-35.3 c 0,-0.3 -119.6,-181.3 -126.4,-191.2 -0.2,-0.2 -126,189.7 -126.4,190.8 -0.2,0.5 51.8,0.9 126.3,0.9 69.6,0 126.5,-0.2 126.5,-0.5 l 0,0 z M 220.8,633.7 c 3.3,-5.6 66.7,-100.6 66.9,-100.4 0.3,0.3 65.4,98.3 66.7,100.5 0.6,1 -13,1.3 -66.8,1.3 -56.3,0 -67.4,-0.3 -66.8,-1.4 z m 105.1,-14.9 c -20,-30.4 -37.2,-56.4 -37.8,-57.1 -0.5,-0.6 -33.2,47.6 -39.3,57.9 -0.7,1.1 5.7,1.4 38.9,1.4 h 39.7 l -1.5,-2.2 0,0 z"
   inkscape:connector-curvature="0"
   style="fill:#9eed15" />
    <path
   id="path3250"
   d="m -468.2,979.7 c 0.4,-0.8 170.7,-257.5 378.3,-570.4 l 377.5,-569 8.5,12.7 c 8.1,12.2 742.9,1119.8 746.5,1125.4 l 1.8,2.7 H 287.7 c -651.4,0 -756.5,-0.2 -755.9,-1.4 l 0,0 z M 673.9,793.8 C 673.1,792.6 595.1,675 500.6,532.5 406.1,390.1 319.5,259.5 308.2,242.4 L 287.6,211.3 95.6,500.7 C -10,660 -97.2,791.6 -98.2,793.2 l -1.8,2.9 h 387.7 387.7 l -1.5,-2.3 0,0 z M -21.7,756.1 c 0.4,-1.1 309.3,-466.9 309.4,-466.7 9.4,13.9 309.4,466.8 309.4,467.1 0,0.3 -139.3,0.5 -309.6,0.5 -199.7,0.1 -309.4,-0.3 -309.2,-0.9 l 0,0 z M 535.1,725.4 C 535.1,723.7 287.7,352.1 287,352.7 286.6,353.1 234.3,431.8 170.9,527.5 107.5,623.3 51.8,707.1 47.3,713.8 L 39.1,726 h 248 c 136.4,0.1 248,-0.2 248,-0.6 z M 89.8,699.9 c 2.7,-4.4 196.7,-296.5 197.3,-297.1 0.4,-0.4 45,65.9 99.1,147.5 54.1,81.6 98.8,148.9 99.3,149.6 0.7,1 -39,1.3 -197.7,1.3 -155.2,-0.1 -198.6,-0.4 -198,-1.3 z m 324.3,-35.3 c 0,-0.3 -119.6,-181.3 -126.4,-191.2 -0.2,-0.2 -126,189.7 -126.4,190.8 -0.2,0.5 51.8,0.9 126.3,0.9 69.6,0 126.5,-0.2 126.5,-0.5 l 0,0 z"
   inkscape:connector-curvature="0"
   style="fill:#cb625e" />
    <path
   id="path3248"
   d="m -468.2,979.7 c 0.4,-0.8 170.7,-257.5 378.3,-570.4 l 377.5,-569 8.5,12.7 c 8.1,12.2 742.9,1119.8 746.5,1125.4 l 1.8,2.7 H 287.7 c -651.4,0 -756.5,-0.2 -755.9,-1.4 l 0,0 z M 673.9,793.8 C 673.1,792.6 595.1,675 500.6,532.5 406.1,390.1 319.5,259.5 308.2,242.4 L 287.6,211.3 95.6,500.7 C -10,660 -97.2,791.6 -98.2,793.2 l -1.8,2.9 h 387.7 387.7 l -1.5,-2.3 0,0 z M -21.7,756.1 c 0.4,-1.1 309.3,-466.9 309.4,-466.7 9.4,13.9 309.4,466.8 309.4,467.1 0,0.3 -139.3,0.5 -309.6,0.5 -199.7,0.1 -309.4,-0.3 -309.2,-0.9 l 0,0 z M 535.1,725.4 C 535.1,723.7 287.7,352.1 287,352.7 286.6,353.1 234.3,431.8 170.9,527.5 107.5,623.3 51.8,707.1 47.3,713.8 L 39.1,726 h 248 c 136.4,0.1 248,-0.2 248,-0.6 z"
   inkscape:connector-curvature="0"
   style="fill:#862da1" />
    <path
   id="path3246"
   d="m -468.2,979.7 c 0.4,-0.8 170.7,-257.5 378.3,-570.4 l 377.5,-569 8.5,12.7 c 8.1,12.2 742.9,1119.8 746.5,1125.4 l 1.8,2.7 H 287.7 c -651.4,0 -756.5,-0.2 -755.9,-1.4 l 0,0 z M 673.9,793.8 C 673.1,792.6 595.1,675 500.6,532.5 406.1,390.1 319.5,259.5 308.2,242.4 L 287.6,211.3 95.6,500.7 C -10,660 -97.2,791.6 -98.2,793.2 l -1.8,2.9 h 387.7 387.7 l -1.5,-2.3 0,0 z"
   inkscape:connector-curvature="0"
   style="fill:#202cda" />
    <path
   id="path3244"
   d="m -468.2,979.7 c 0.4,-0.8 170.7,-257.5 378.3,-570.4 l 377.5,-569 8.5,12.7 c 8.1,12.2 742.9,1119.8 746.5,1125.4 l 1.8,2.7 H 287.7 c -651.4,0 -756.5,-0.2 -755.9,-1.4 l 0,0 z M 886.3,894.8 C 882.5,889.2 746.3,683.8 583.6,438.5 420.9,193.2 287.8,-7.5 287.8,-7.6 287.7,-7.7 -197.3,723.2 -286,857.2 l -31.7,47.9 h 605.5 605.5 l -7,-10.3 0,0 z M -195.9,843.5 c 0,-0.3 108.8,-164.6 241.7,-365 l 241.7,-364.4 17.1,25.7 c 51.8,77.7 466.5,703.2 466.5,703.7 0,0.3 -217.6,0.5 -483.5,0.5 -265.9,0 -483.5,-0.2 -483.5,-0.5 l 0,0 z M 673.9,793.8 C 673.1,792.6 595.1,675 500.6,532.5 406.1,390.1 319.5,259.5 308.2,242.4 L 287.6,211.3 95.6,500.7 C -10,660 -97.2,791.6 -98.2,793.2 l -1.8,2.9 h 387.7 387.7 l -1.5,-2.3 0,0 z"
   inkscape:connector-curvature="0"
   style="fill:#ed0d1a" />
    <path
   id="path3242"
   d="m -468.2,979.7 c 0.4,-0.8 170.7,-257.5 378.3,-570.4 l 377.5,-569 8.5,12.7 c 8.1,12.2 742.9,1119.8 746.5,1125.4 l 1.8,2.7 H 287.7 c -651.4,0 -756.5,-0.2 -755.9,-1.4 l 0,0 z M 886.3,894.8 C 882.5,889.2 746.3,683.8 583.6,438.5 420.9,193.2 287.8,-7.5 287.8,-7.6 287.7,-7.7 -197.3,723.2 -286,857.2 l -31.7,47.9 h 605.5 605.5 l -7,-10.3 0,0 z"
   inkscape:connector-curvature="0"
   style="fill:#0ca13c" />
    <path
   id="path3023"
   d="m 287.1,593.5 c -2.9,3 -5,6.7 -7.2,10.3 -0.7,2 2.2,1.7 3.4,1.7 3.9,0 7.8,0.3 11.7,-0.1 1.1,-1.4 -1,-2.8 -1.4,-4.1 -1.9,-2.5 -2.9,-5.7 -5.5,-7.6 -0.3,-0.3 -0.6,-0.4 -1,-0.2 l 0,0 z"
   inkscape:connector-curvature="0"
   style="fill:#93fbfe" />
  </g>
</g>
</svg>
