<?xml version="1.0" encoding="utf-8"?>
<!-- Generator: Adobe Illustrator 17.1.0, SVG Export Plug-In . SVG Version: 6.00 Build 0)  -->
<!DOCTYPE svg PUBLIC "-//W3C//DTD SVG 1.1//EN" "http://www.w3.org/Graphics/SVG/1.1/DTD/svg11.dtd">
<svg version="1.1"
	 id="svg2" xmlns:rdf="http://www.w3.org/1999/02/22-rdf-syntax-ns#" xmlns:svg="http://www.w3.org/2000/svg" xmlns:dc="http://purl.org/dc/elements/1.1/"
	 xmlns="http://www.w3.org/2000/svg" xmlns:xlink="http://www.w3.org/1999/xlink" x="0px" y="0px" width="25px" height="14px"
	 viewBox="0 0 25 14" enable-background="new 0 0 25 14" xml:space="preserve">
<g id="layer1" transform="matrix(0.0178477,0,0,0.0178477,0.89337423,-2.4623507)">
	<g id="g3240" transform="matrix(0.53333333,0,0,0.53333333,356.8542,348.45918)">
		<path id="path3262" fill="#93FBFE" d="M-342.7,1075.7c0-0.7,944.5-1424.3,945.2-1424.7c0.6-0.3,945.8,1423.5,945.8,1424.7
			c0,0.2-425.5,0.4-945.5,0.4S-342.7,1075.9-342.7,1075.7L-342.7,1075.7z"/>
		<path id="path3260" fill="#F0E9B2" d="M-342.7,1075.7c0-0.7,944.5-1424.3,945.2-1424.7c0.6-0.3,945.8,1423.5,945.8,1424.7
			c0,0.2-425.5,0.4-945.5,0.4S-342.7,1075.9-342.7,1075.7L-342.7,1075.7z"/>
		<path id="path3258" fill="#B0BACD" d="M-342.7,1075.7c0-0.7,944.5-1424.3,945.2-1424.7c0.6-0.3,945.8,1423.5,945.8,1424.7
			c0,0.2-425.5,0.4-945.5,0.4S-342.7,1075.9-342.7,1075.7L-342.7,1075.7z"/>
		<path id="path3256" fill="#FEFE00" d="M-342.7,1075.7c0-0.7,944.5-1424.3,945.2-1424.7c0.6-0.3,945.8,1423.5,945.8,1424.7
			c0,0.2-425.5,0.4-945.5,0.4S-342.7,1075.9-342.7,1075.7L-342.7,1075.7z"/>
		<path id="path3254" fill="#188BFE" d="M-153,979.7L-153,979.7 M1357.8,978.4l1.8,2.7"/>
		<path id="path3252" fill="#9EED15" d="M-153,979.7L-153,979.7 M1357.8,978.4l1.8,2.7"/>
		<path id="path3250" fill="#CB625E" d="M-153,979.7L-153,979.7 M1357.8,978.4l1.8,2.7"/>
		<path id="path3248" fill="#862DA1" d="M-153,979.7L-153,979.7 M1357.8,978.4l1.8,2.7"/>
		<path id="path3246" fill="#202CDA" d="M-153,979.7L-153,979.7 M1357.8,978.4l1.8,2.7"/>
		<path id="path3244" fill="#ED0D1A" d="M-153,979.7L-153,979.7 M1357.8,978.4l1.8,2.7"/>
		<path id="path3242" fill="#0CA13C" d="M-153,979.7L-153,979.7 M1357.8,978.4l1.8,2.7"/>
	</g>
</g>
</svg>
