<svg xmlns="http://www.w3.org/2000/svg" viewBox="0 0 25 14" enable-background="new 0 0 25 14"><g><path fill="#93FBFE" d="M3.835 14.514c0-.007 9.445-14.243 9.452-14.247.006-.003 9.458 14.235 9.458 14.247 0 .002-4.255.004-9.455.004s-9.455-.002-9.455-.004z"/><path fill="#F0E9B2" d="M3.835 14.514c0-.007 9.445-14.243 9.452-14.247.006-.003 9.458 14.235 9.458 14.247 0 .002-4.255.004-9.455.004s-9.455-.002-9.455-.004z"/><path fill="#B0BACD" d="M3.835 14.514c0-.007 9.445-14.243 9.452-14.247.006-.003 9.458 14.235 9.458 14.247 0 .002-4.255.004-9.455.004s-9.455-.002-9.455-.004z"/><path fill="#FCF54A" d="M3.835 14.514c0-.007 9.445-14.243 9.452-14.247.006-.003 9.458 14.235 9.458 14.247 0 .002-4.255.004-9.455.004s-9.455-.002-9.455-.004z"/><path fill="#188BFE" d="M5.732 13.554m15.108-.013l.018.028"/><path fill="#9EED15" d="M5.732 13.554m15.108-.013l.018.028"/><path fill="#CB625E" d="M5.732 13.554m15.108-.013l.018.028"/><path fill="#862DA1" d="M5.732 13.554m15.108-.013l.018.028"/><path fill="#202CDA" d="M5.732 13.554m15.108-.013l.018.028"/><path fill="#ED0D1A" d="M5.732 13.554m15.108-.013l.018.028"/><path fill="#0CA13C" d="M5.732 13.554m15.108-.013l.018.028"/></g></svg>