<?xml version="1.0" encoding="UTF-8" standalone="no"?>
<!-- Created with Inkscape (http://www.inkscape.org/) -->

<svg
   xmlns:dc="http://purl.org/dc/elements/1.1/"
   xmlns:cc="http://creativecommons.org/ns#"
   xmlns:rdf="http://www.w3.org/1999/02/22-rdf-syntax-ns#"
   xmlns:svg="http://www.w3.org/2000/svg"
   xmlns="http://www.w3.org/2000/svg"
   xmlns:sodipodi="http://sodipodi.sourceforge.net/DTD/sodipodi-0.dtd"
   xmlns:inkscape="http://www.inkscape.org/namespaces/inkscape"
   width="1024"
   height="1024"
   id="svg2"
   version="1.1"
   inkscape:version="0.48.4 r9939"
   inkscape:export-xdpi="13.36"
   inkscape:export-ydpi="13.36"
   sodipodi:docname="Triangle717-Logo.svg">
  <title
     id="title3305">Triangle717 Logo</title>
  <defs
     id="defs4" />
  <sodipodi:namedview
     id="base"
     pagecolor="#ffffff"
     bordercolor="#666666"
     borderopacity="1.0"
     inkscape:pageopacity="0.0"
     inkscape:pageshadow="2"
     inkscape:zoom="0.24748737"
     inkscape:cx="39.411004"
     inkscape:cy="541.41613"
     inkscape:document-units="px"
     inkscape:current-layer="layer1"
     showgrid="false"
     inkscape:window-width="1366"
     inkscape:window-height="705"
     inkscape:window-x="-8"
     inkscape:window-y="-8"
     inkscape:window-maximized="1" />
  <metadata
     id="metadata7">
    <rdf:RDF>
      <cc:Work
         rdf:about="">
        <dc:format>image/svg+xml</dc:format>
        <dc:type
           rdf:resource="http://purl.org/dc/dcmitype/StillImage" />
        <dc:title>Triangle717 Logo</dc:title>
      </cc:Work>
    </rdf:RDF>
  </metadata>
  <g
     inkscape:label="Layer 1"
     inkscape:groupmode="layer"
     id="layer1"
     transform="translate(0,-28.362)">
    <g
       id="g3240"
       transform="matrix(0.53333333,0,0,0.53333333,356.8542,348.45918)"
       inkscape:export-xdpi="90"
       inkscape:export-ydpi="90">
      <path
         style="fill:#93fbfe;fill-opacity:1"
         d="m -657.85162,1075.6504 c 0,-0.7093 944.45569,-1424.26533 945.20564,-1424.6864 0.58168,-0.32659 945.79438,1423.5206 945.79438,1424.7234 0,0.2092 -425.47502,0.3804 -945.50002,0.3804 -520.025,0 -945.5,-0.1878 -945.5,-0.4174 z"
         id="path3262"
         inkscape:connector-curvature="0" />
      <path
         style="fill:#f0e9b2"
         d="m -657.85162,1075.6504 c 0,-0.7093 944.45569,-1424.26533 945.20564,-1424.6864 0.58168,-0.32659 945.79438,1423.5206 945.79438,1424.7234 0,0.2092 -425.47502,0.3804 -945.50002,0.3804 -520.025,0 -945.5,-0.1878 -945.5,-0.4174 z m 983.7504,-456.83259 c -20.01956,-30.4431 -37.21776,-56.4283 -37.76128,-57.0546 -0.51509,-0.5935 -33.18182,47.5874 -39.28881,57.9479 -0.66777,1.1329 5.74355,1.3567 38.86501,1.3567 l 39.66468,0 -1.4796,-2.25 z m -45.7504,-14.2654 c 0,-0.2834 1.67301,-3.0351 3.7178,-6.1148 4.18847,-6.3083 3.4836,-6.525 9.08888,2.7949 l 2.30668,3.8353 -7.55668,0 c -4.15617,0 -7.55668,-0.2319 -7.55668,-0.5154 z"
         id="path3260"
         inkscape:connector-curvature="0" />
      <path
         style="fill:#b0bacd"
         d="m -657.85162,1075.6504 c 0,-0.7093 944.45569,-1424.26533 945.20564,-1424.6864 0.58168,-0.32659 945.79438,1423.5206 945.79438,1424.7234 0,0.2092 -425.47502,0.3804 -945.50002,0.3804 -520.025,0 -945.5,-0.1878 -945.5,-0.4174 z m 1072,-411.03579 c 0,-0.3035 -119.62593,-181.2855 -126.3876,-191.2118 -0.1604,-0.23548 -126.04357,189.6821 -126.44573,190.7664 -0.19606,0.5285 51.79881,0.8986 126.25,0.8986 69.62083,0 126.58333,-0.2039 126.58333,-0.4532 z m -193.29969,-30.8927 c 3.30857,-5.5683 66.68108,-100.606 66.92376,-100.3634 0.32297,0.323 65.37343,98.2607 66.72533,100.4593 0.612,0.9953 -13.0099,1.25 -66.84007,1.25 -56.3853,0 -67.47596,-0.2234 -66.80902,-1.3459 z m 105.05009,-14.9041 c -20.01956,-30.4431 -37.21776,-56.4283 -37.76128,-57.0546 -0.51509,-0.5935 -33.18182,47.5874 -39.28881,57.9479 -0.66777,1.1329 5.74355,1.3567 38.86501,1.3567 l 39.66468,0 -1.4796,-2.25 z m -45.7504,-14.2654 c 0,-0.2834 1.67301,-3.0351 3.7178,-6.1148 4.18847,-6.3083 3.4836,-6.525 9.08888,2.7949 l 2.30668,3.8353 -7.55668,0 c -4.15617,0 -7.55668,-0.2319 -7.55668,-0.5154 z"
         id="path3258"
         inkscape:connector-curvature="0" />
      <path
         style="fill:#fefe00"
         d="m -657.85162,1075.6504 c 0,-0.7093 944.45569,-1424.26533 945.20564,-1424.6864 0.58168,-0.32659 945.79438,1423.5206 945.79438,1424.7234 0,0.2092 -425.47502,0.3804 -945.50002,0.3804 -520.025,0 -945.5,-0.1878 -945.5,-0.4174 z m 1193,-350.21029 c 0,-1.6627 -247.42299,-373.34434 -248.07439,-372.66021 -0.41262,0.43335 -52.67957,79.08791 -116.14878,174.78791 -63.46921,95.7 -119.09256,179.5125 -123.60744,186.25 l -8.20888,12.25 248.01974,0 c 136.41085,0 248.01975,-0.2825 248.01975,-0.6277 z M 89.77759,699.85871 c 2.72907,-4.4157 196.66,-296.45317 197.28865,-297.09377 0.43334,-0.44158 45.03754,65.93342 99.12054,147.49997 54.0829,81.5666 98.7542,148.8654 99.2695,149.5529 0.7488,0.9989 -38.9663,1.25 -197.74447,1.25 -155.10234,0 -198.51756,-0.2652 -197.93422,-1.2091 z m 324.37079,-35.2441 c 0,-0.3035 -119.62593,-181.2855 -126.3876,-191.2118 -0.1604,-0.23548 -126.04357,189.6821 -126.44573,190.7664 -0.19606,0.5285 51.79881,0.8986 126.25,0.8986 69.62083,0 126.58333,-0.2039 126.58333,-0.4532 z m -193.29969,-30.8927 c 3.30857,-5.5683 66.68108,-100.606 66.92376,-100.3634 0.32297,0.323 65.37343,98.2607 66.72533,100.4593 0.612,0.9953 -13.0099,1.25 -66.84007,1.25 -56.3853,0 -67.47596,-0.2234 -66.80902,-1.3459 z m 105.05009,-14.9041 c -20.01956,-30.4431 -37.21776,-56.4283 -37.76128,-57.0546 -0.51509,-0.5935 -33.18182,47.5874 -39.28881,57.9479 -0.66777,1.1329 5.74355,1.3567 38.86501,1.3567 l 39.66468,0 z"
         id="path3256"
         inkscape:connector-curvature="0"
         sodipodi:nodetypes="ssssssssscsscsscscsccssccsscscsscs" />
      <path
         style="fill:#188bfe"
         d="m -468.15131,979.65561 c 0.43983,-0.7766 170.65653,-257.4702 378.25933,-570.43013 l 377.45963,-569.01802 8.46893,12.68018 c 8.14248,12.1914 742.87042,1119.80747 746.54472,1125.43017 l 1.7971,2.75 -756.6647,0 c -651.38205,0 -756.55343,-0.1965 -755.86501,-1.4122 z M 535.14838,725.44011 c 0,-1.6627 -247.42299,-373.34434 -248.07439,-372.66021 -0.41262,0.43335 -52.67957,79.08791 -116.14878,174.78791 -63.46921,95.7 -119.09256,179.5125 -123.60744,186.25 l -8.20888,12.25 248.01974,0 c 136.41085,0 248.01975,-0.2825 248.01975,-0.6277 z M 89.77759,699.85871 c 2.72907,-4.4157 196.66,-296.45317 197.28865,-297.09377 0.43334,-0.44158 45.03754,65.93342 99.12054,147.49997 54.0829,81.5666 98.7542,148.8654 99.2695,149.5529 0.7488,0.9989 -38.9663,1.25 -197.74447,1.25 -155.10234,0 -198.51756,-0.2652 -197.93422,-1.2091 z m 324.37079,-35.2441 c 0,-0.3035 -119.62593,-181.2855 -126.3876,-191.2118 -0.1604,-0.23548 -126.04357,189.6821 -126.44573,190.7664 -0.19606,0.5285 51.79881,0.8986 126.25,0.8986 69.62083,0 126.58333,-0.2039 126.58333,-0.4532 z m -193.29969,-30.8927 c 3.30857,-5.5683 66.68108,-100.606 66.92376,-100.3634 0.32297,0.323 65.37343,98.2607 66.72533,100.4593 0.612,0.9953 -13.0099,1.25 -66.84007,1.25 -56.3853,0 -67.47596,-0.2234 -66.80902,-1.3459 z m 105.05009,-14.9041 c -20.01956,-30.4431 -37.21776,-56.4283 -37.76128,-57.0546 -0.51509,-0.5935 -33.18182,47.5874 -39.28881,57.9479 -0.66777,1.1329 5.74355,1.3567 38.86501,1.3567 l 39.66468,0 -1.4796,-2.25 z"
         id="path3254"
         inkscape:connector-curvature="0" />
      <path
         style="fill:#9eed15"
         d="m -468.15131,979.65561 c 0.43983,-0.7766 170.65653,-257.4702 378.25933,-570.43013 l 377.45963,-569.01802 8.46893,12.68018 c 8.14248,12.1914 742.87042,1119.80747 746.54472,1125.43017 l 1.7971,2.75 -756.6647,0 c -651.38205,0 -756.55343,-0.1965 -755.86501,-1.4122 z M 673.90238,793.81511 c -0.8118,-1.239 -78.7956,-118.8015 -173.2974,-261.25 C 406.10328,390.1166 319.52647,259.57616 308.21211,242.47526 L 287.64056,211.3827 95.64447,500.82801 C -9.95338,660.02291 -97.18331,791.57711 -98.19982,793.17061 l -1.8482,2.8972 387.71321,0 387.71319,0 -1.476,-2.2527 z m -695.58733,-37.7181 c 0.36551,-1.0645 309.26745,-466.93923 309.43968,-466.68573 9.42258,13.8687 309.39365,466.76063 309.39365,467.11803 0,0.2962 -139.3125,0.5385 -309.58333,0.5385 -199.74027,0 -309.46507,-0.3444 -309.25,-0.9708 z m 556.83333,-30.6569 c 0,-1.6627 -247.42299,-373.34434 -248.07439,-372.66021 -0.41262,0.43335 -52.67957,79.08791 -116.14878,174.78791 -63.46921,95.7 -119.09256,179.5125 -123.60744,186.25 l -8.20888,12.25 248.01974,0 c 136.41085,0 248.01975,-0.2825 248.01975,-0.6277 z M 89.77759,699.85871 c 2.72907,-4.4157 196.66,-296.45317 197.28865,-297.09377 0.43334,-0.44158 45.03754,65.93342 99.12054,147.49997 54.0829,81.5666 98.7542,148.8654 99.2695,149.5529 0.7488,0.9989 -38.9663,1.25 -197.74447,1.25 -155.10234,0 -198.51756,-0.2652 -197.93422,-1.2091 z m 324.37079,-35.2441 c 0,-0.3035 -119.62593,-181.2855 -126.3876,-191.2118 -0.1604,-0.23548 -126.04357,189.6821 -126.44573,190.7664 -0.19606,0.5285 51.79881,0.8986 126.25,0.8986 69.62083,0 126.58333,-0.2039 126.58333,-0.4532 z m -193.29969,-30.8927 c 3.30857,-5.5683 66.68108,-100.606 66.92376,-100.3634 0.32297,0.323 65.37343,98.2607 66.72533,100.4593 0.612,0.9953 -13.0099,1.25 -66.84007,1.25 -56.3853,0 -67.47596,-0.2234 -66.80902,-1.3459 z m 105.05009,-14.9041 c -20.01956,-30.4431 -37.21776,-56.4283 -37.76128,-57.0546 -0.51509,-0.5935 -33.18182,47.5874 -39.28881,57.9479 -0.66777,1.1329 5.74355,1.3567 38.86501,1.3567 l 39.66468,0 -1.4796,-2.25 z"
         id="path3252"
         inkscape:connector-curvature="0" />
      <path
         style="fill:#cb625e"
         d="m -468.15131,979.65561 c 0.43983,-0.7766 170.65653,-257.4702 378.25933,-570.43013 l 377.45963,-569.01802 8.46893,12.68018 c 8.14248,12.1914 742.87042,1119.80747 746.54472,1125.43017 l 1.7971,2.75 -756.6647,0 c -651.38205,0 -756.55343,-0.1965 -755.86501,-1.4122 z M 673.90238,793.81511 c -0.8118,-1.239 -78.7956,-118.8015 -173.2974,-261.25 C 406.10328,390.1166 319.52647,259.57616 308.21211,242.47526 L 287.64056,211.3827 95.64447,500.82801 C -9.95338,660.02291 -97.18331,791.57711 -98.19982,793.17061 l -1.8482,2.8972 387.71321,0 387.71319,0 -1.476,-2.2527 z m -695.58733,-37.7181 c 0.36551,-1.0645 309.26745,-466.93923 309.43968,-466.68573 9.42258,13.8687 309.39365,466.76063 309.39365,467.11803 0,0.2962 -139.3125,0.5385 -309.58333,0.5385 -199.74027,0 -309.46507,-0.3444 -309.25,-0.9708 z m 556.83333,-30.6569 c 0,-1.6627 -247.42299,-373.34434 -248.07439,-372.66021 -0.41262,0.43335 -52.67957,79.08791 -116.14878,174.78791 -63.46921,95.7 -119.09256,179.5125 -123.60744,186.25 l -8.20888,12.25 248.01974,0 c 136.41085,0 248.01975,-0.2825 248.01975,-0.6277 z M 89.77759,699.85871 c 2.72907,-4.4157 196.66,-296.45317 197.28865,-297.09377 0.43334,-0.44158 45.03754,65.93342 99.12054,147.49997 54.0829,81.5666 98.7542,148.8654 99.2695,149.5529 0.7488,0.9989 -38.9663,1.25 -197.74447,1.25 -155.10234,0 -198.51756,-0.2652 -197.93422,-1.2091 z m 324.37079,-35.2441 c 0,-0.3035 -119.62593,-181.2855 -126.3876,-191.2118 -0.1604,-0.23548 -126.04357,189.6821 -126.44573,190.7664 -0.19606,0.5285 51.79881,0.8986 126.25,0.8986 69.62083,0 126.58333,-0.2039 126.58333,-0.4532 z"
         id="path3250"
         inkscape:connector-curvature="0" />
      <path
         style="fill:#862da1"
         d="m -468.15131,979.65561 c 0.43983,-0.7766 170.65653,-257.4702 378.25933,-570.43013 l 377.45963,-569.01802 8.46893,12.68018 c 8.14248,12.1914 742.87042,1119.80747 746.54472,1125.43017 l 1.7971,2.75 -756.6647,0 c -651.38205,0 -756.55343,-0.1965 -755.86501,-1.4122 z M 673.90238,793.81511 c -0.8118,-1.239 -78.7956,-118.8015 -173.2974,-261.25 C 406.10328,390.1166 319.52647,259.57616 308.21211,242.47526 L 287.64056,211.3827 95.64447,500.82801 C -9.95338,660.02291 -97.18331,791.57711 -98.19982,793.17061 l -1.8482,2.8972 387.71321,0 387.71319,0 -1.476,-2.2527 z m -695.58733,-37.7181 c 0.36551,-1.0645 309.26745,-466.93923 309.43968,-466.68573 9.42258,13.8687 309.39365,466.76063 309.39365,467.11803 0,0.2962 -139.3125,0.5385 -309.58333,0.5385 -199.74027,0 -309.46507,-0.3444 -309.25,-0.9708 z m 556.83333,-30.6569 c 0,-1.6627 -247.42299,-373.34434 -248.07439,-372.66021 -0.41262,0.43335 -52.67957,79.08791 -116.14878,174.78791 -63.46921,95.7 -119.09256,179.5125 -123.60744,186.25 l -8.20888,12.25 248.01974,0 c 136.41085,0 248.01975,-0.2825 248.01975,-0.6277 z"
         id="path3248"
         inkscape:connector-curvature="0" />
      <path
         style="fill:#202cda"
         d="m -468.15131,979.65561 c 0.43983,-0.7766 170.65653,-257.4702 378.25933,-570.43013 l 377.45963,-569.01802 8.46893,12.68018 c 8.14248,12.1914 742.87042,1119.80747 746.54472,1125.43017 l 1.7971,2.75 -756.6647,0 c -651.38205,0 -756.55343,-0.1965 -755.86501,-1.4122 z M 673.90238,793.81511 c -0.8118,-1.239 -78.7956,-118.8015 -173.2974,-261.25 C 406.10328,390.1166 319.52647,259.57616 308.21211,242.47526 L 287.64056,211.3827 95.64447,500.82801 C -9.95338,660.02291 -97.18331,791.57711 -98.19982,793.17061 l -1.8482,2.8972 387.71321,0 387.71319,0 -1.476,-2.2527 z"
         id="path3246"
         inkscape:connector-curvature="0" />
      <path
         style="fill:#ed0d1a"
         d="m -468.15131,979.65561 c 0.43983,-0.7766 170.65653,-257.4702 378.25933,-570.43013 l 377.45963,-569.01802 8.46893,12.68018 c 8.14248,12.1914 742.87042,1119.80747 746.54472,1125.43017 l 1.7971,2.75 -756.6647,0 c -651.38205,0 -756.55343,-0.1965 -755.86501,-1.4122 z m 1354.47809,-84.8378 c -3.7765,-5.6375 -139.9719,-210.95 -302.6564,-456.25 C 420.98588,193.26781 287.82816,-7.50678 287.76437,-7.59794 287.66432,-7.74092 -197.364,723.21991 -286.05801,857.17971 l -31.70639,47.8881 605.47876,0 605.47872,0 -6.8663,-10.25 z m -1082.1784,-51.341 c 0,-0.3251 108.76349,-164.5536 241.69665,-364.95222 l 241.69665,-364.36113 17.13811,25.70218 c 51.78479,77.66211 466.46859,703.20757 466.46859,703.66217 0,0.297 -217.575,0.54 -483.5,0.54 -265.925,0 -483.5,-0.266 -483.5,-0.591 z m 869.754,-49.6617 c -0.8118,-1.239 -78.7956,-118.8015 -173.2974,-261.25 C 406.10328,390.1166 319.52647,259.57616 308.21211,242.47526 L 287.64056,211.3827 95.64447,500.82801 C -9.95338,660.02291 -97.18331,791.57711 -98.19982,793.17061 l -1.8482,2.8972 387.71321,0 387.71319,0 -1.476,-2.2527 z"
         id="path3244"
         inkscape:connector-curvature="0" />
      <path
         style="fill:#0ca13c"
         d="m -468.15131,979.65561 c 0.43983,-0.7766 170.65653,-257.4702 378.25933,-570.43013 l 377.45963,-569.01802 8.46893,12.68018 c 8.14248,12.1914 742.87042,1119.80747 746.54472,1125.43017 l 1.7971,2.75 -756.6647,0 c -651.38205,0 -756.55343,-0.1965 -755.86501,-1.4122 z m 1354.47809,-84.8378 c -3.7765,-5.6375 -139.9719,-210.95 -302.6564,-456.25 C 420.98588,193.26781 287.82816,-7.50678 287.76437,-7.59794 287.66432,-7.74092 -197.364,723.21991 -286.05801,857.17971 l -31.70639,47.8881 605.47876,0 605.47872,0 -6.8663,-10.25 z"
         id="path3242"
         inkscape:connector-curvature="0" />
      <path
         style="fill:#93fbfe;fill-opacity:1;stroke:none"
         d="m 509.97856,636.60943 c -1.56499,1.58481 -2.68077,3.57887 -3.81696,5.49107 -0.36788,1.07776 1.19948,0.88116 1.83015,0.92177 2.06731,-0.0128 4.16633,0.15459 6.21672,-0.068 0.58879,-0.72452 -0.55187,-1.50958 -0.77009,-2.20982 -0.99505,-1.32249 -1.55769,-3.06469 -2.90736,-4.07366 -0.16823,-0.0851 -0.36938,-0.15569 -0.55246,-0.0614 z"
         id="path3023"
         inkscape:connector-curvature="0"
         transform="matrix(1.875,0,0,1.875,-669.10163,-600.18222)" />
    </g>
  </g>
</svg>
