<?xml version="1.0" encoding="utf-8"?>
<!DOCTYPE svg PUBLIC "-//W3C//DTD SVG 1.1//EN" "http://www.w3.org/Graphics/SVG/1.1/DTD/svg11.dtd">
<svg version="1.1"
   id="svg2" xmlns:dc="http://purl.org/dc/elements/1.1/" xmlns:cc="http://creativecommons.org/ns#" xmlns:rdf="http://www.w3.org/1999/02/22-rdf-syntax-ns#" xmlns:svg="http://www.w3.org/2000/svg" xmlns:sodipodi="http://sodipodi.sourceforge.net/DTD/sodipodi-0.dtd" sodipodi:docname="Triangle717-Logo.svg" xmlns="http://www.w3.org/2000/svg" xmlns:xlink="http://www.w3.org/1999/xlink" x="0px" y="0px" viewBox="0 0 1024 1024"
   enable-background="new 0 0 1024 1024" xml:space="preserve">
<title id="title3305">Triangle717</title>

<g id="layer1" transform="translate(0,-28.362)">
    <g id="g3240" transform="matrix(0.53333333,0,0,0.53333333,356.8542,348.45918)">
    <path id="path3262" fill="#93FBFE" d="M-657.9,1075.7c0-0.7,944.5-1424.3,945.2-1424.7
      c0.6-0.3,945.8,1423.5,945.8,1424.7c0,0.2-425.5,0.4-945.5,0.4S-657.9,1075.9-657.9,1075.7L-657.9,1075.7z"/>
    <path id="path3260" fill="#F0E9B2" d="M-657.9,1075.7c0-0.7,944.5-1424.3,945.2-1424.7
      c0.6-0.3,945.8,1423.5,945.8,1424.7c0,0.2-425.5,0.4-945.5,0.4S-657.9,1075.9-657.9,1075.7L-657.9,1075.7z M325.9,618.8
      c-20-30.4-37.2-56.4-37.8-57.1c-0.5-0.6-33.2,47.6-39.3,57.9c-0.7,1.1,5.7,1.4,38.9,1.4h39.7L325.9,618.8L325.9,618.8z
       M280.1,604.6c0-0.3,1.7-3,3.7-6.1c4.2-6.3,3.5-6.5,9.1,2.8l2.3,3.8h-7.6C283.5,605.1,280.1,604.8,280.1,604.6L280.1,604.6z"/>
    <path id="path3258" fill="#B0BACD" d="M-657.9,1075.7c0-0.7,944.5-1424.3,945.2-1424.7
      c0.6-0.3,945.8,1423.5,945.8,1424.7c0,0.2-425.5,0.4-945.5,0.4S-657.9,1075.9-657.9,1075.7L-657.9,1075.7z M414.1,664.6
      c0-0.3-119.6-181.3-126.4-191.2c-0.2-0.2-126,189.7-126.4,190.8c-0.2,0.5,51.8,0.9,126.3,0.9C357.2,665.1,414.1,664.9,414.1,664.6
      L414.1,664.6z M220.8,633.7c3.3-5.6,66.7-100.6,66.9-100.4c0.3,0.3,65.4,98.3,66.7,100.5c0.6,1-13,1.3-66.8,1.3
      C231.3,635.1,220.2,634.8,220.8,633.7z M325.9,618.8c-20-30.4-37.2-56.4-37.8-57.1c-0.5-0.6-33.2,47.6-39.3,57.9
      c-0.7,1.1,5.7,1.4,38.9,1.4h39.7L325.9,618.8L325.9,618.8z M280.1,604.6c0-0.3,1.7-3,3.7-6.1c4.2-6.3,3.5-6.5,9.1,2.8l2.3,3.8
      h-7.6C283.5,605.1,280.1,604.8,280.1,604.6L280.1,604.6z"/>
      <path id="path3256" sodipodi:nodetypes="ssssssssscsscsscscsccssccsscscsscs" fill="#FEFE00" d="
      M-657.9,1075.7c0-0.7,944.5-1424.3,945.2-1424.7c0.6-0.3,945.8,1423.5,945.8,1424.7c0,0.2-425.5,0.4-945.5,0.4
      S-657.9,1075.9-657.9,1075.7L-657.9,1075.7z M535.1,725.4c0-1.7-247.4-373.3-248.1-372.7c-0.4,0.4-52.7,79.1-116.1,174.8
      C107.5,623.3,51.8,707.1,47.3,713.8l-8.2,12.3h248C423.5,726.1,535.1,725.8,535.1,725.4z M89.8,699.9
      c2.7-4.4,196.7-296.5,197.3-297.1c0.4-0.4,45,65.9,99.1,147.5c54.1,81.6,98.8,148.9,99.3,149.6c0.7,1-39,1.3-197.7,1.3
      C132.6,701.1,89.2,700.8,89.8,699.9z M414.1,664.6c0-0.3-119.6-181.3-126.4-191.2c-0.2-0.2-126,189.7-126.4,190.8
      c-0.2,0.5,51.8,0.9,126.3,0.9C357.2,665.1,414.1,664.9,414.1,664.6L414.1,664.6z M220.8,633.7c3.3-5.6,66.7-100.6,66.9-100.4
      c0.3,0.3,65.4,98.3,66.7,100.5c0.6,1-13,1.3-66.8,1.3C231.3,635.1,220.2,634.8,220.8,633.7z M325.9,618.8
      c-20-30.4-37.2-56.4-37.8-57.1c-0.5-0.6-33.2,47.6-39.3,57.9c-0.7,1.1,5.7,1.4,38.9,1.4h39.7L325.9,618.8z"/>
    <path id="path3254" fill="#188BFE" d="M-468.2,979.7c0.4-0.8,170.7-257.5,378.3-570.4l377.5-569
      l8.5,12.7c8.1,12.2,742.9,1119.8,746.5,1125.4l1.8,2.7H287.7C-363.7,981.1-468.8,980.9-468.2,979.7L-468.2,979.7z M535.1,725.4
      c0-1.7-247.4-373.3-248.1-372.7c-0.4,0.4-52.7,79.1-116.1,174.8C107.5,623.3,51.8,707.1,47.3,713.8l-8.2,12.2h248
      C423.5,726.1,535.1,725.8,535.1,725.4z M89.8,699.9c2.7-4.4,196.7-296.5,197.3-297.1c0.4-0.4,45,65.9,99.1,147.5
      c54.1,81.6,98.8,148.9,99.3,149.6c0.7,1-39,1.3-197.7,1.3C132.6,701.1,89.2,700.8,89.8,699.9z M414.1,664.6
      c0-0.3-119.6-181.3-126.4-191.2c-0.2-0.2-126,189.7-126.4,190.8c-0.2,0.5,51.8,0.9,126.3,0.9C357.2,665.1,414.1,664.9,414.1,664.6
      L414.1,664.6z M220.8,633.7c3.3-5.6,66.7-100.6,66.9-100.4c0.3,0.3,65.4,98.3,66.7,100.5c0.6,1-13,1.3-66.8,1.3
      C231.3,635.1,220.2,634.8,220.8,633.7z M325.9,618.8c-20-30.4-37.2-56.4-37.8-57.1c-0.5-0.6-33.2,47.6-39.3,57.9
      c-0.7,1.1,5.7,1.4,38.9,1.4h39.7L325.9,618.8L325.9,618.8z"/>
    <path id="path3252" fill="#9EED15" d="M-468.2,979.7c0.4-0.8,170.7-257.5,378.3-570.4l377.5-569
      l8.5,12.7c8.1,12.2,742.9,1119.8,746.5,1125.4l1.8,2.7H287.7C-363.7,981.1-468.8,980.9-468.2,979.7L-468.2,979.7z M673.9,793.8
      c-0.8-1.2-78.8-118.8-173.3-261.3c-94.5-142.4-181.1-273-192.4-290.1l-20.6-31.1l-192,289.4C-10,660-97.2,791.6-98.2,793.2
      l-1.8,2.9h387.7h387.7L673.9,793.8L673.9,793.8z M-21.7,756.1c0.4-1.1,309.3-466.9,309.4-466.7c9.4,13.9,309.4,466.8,309.4,467.1
      c0,0.3-139.3,0.5-309.6,0.5C87.8,757.1-21.9,756.7-21.7,756.1L-21.7,756.1z M535.1,725.4c0-1.7-247.4-373.3-248.1-372.7
      c-0.4,0.4-52.7,79.1-116.1,174.8C107.5,623.3,51.8,707.1,47.3,713.8l-8.2,12.2h248C423.5,726.1,535.1,725.8,535.1,725.4z
       M89.8,699.9c2.7-4.4,196.7-296.5,197.3-297.1c0.4-0.4,45,65.9,99.1,147.5c54.1,81.6,98.8,148.9,99.3,149.6
      c0.7,1-39,1.3-197.7,1.3C132.6,701.1,89.2,700.8,89.8,699.9z M414.1,664.6c0-0.3-119.6-181.3-126.4-191.2
      c-0.2-0.2-126,189.7-126.4,190.8c-0.2,0.5,51.8,0.9,126.3,0.9C357.2,665.1,414.1,664.9,414.1,664.6L414.1,664.6z M220.8,633.7
      c3.3-5.6,66.7-100.6,66.9-100.4c0.3,0.3,65.4,98.3,66.7,100.5c0.6,1-13,1.3-66.8,1.3C231.3,635.1,220.2,634.8,220.8,633.7z
       M325.9,618.8c-20-30.4-37.2-56.4-37.8-57.1c-0.5-0.6-33.2,47.6-39.3,57.9c-0.7,1.1,5.7,1.4,38.9,1.4h39.7L325.9,618.8
      L325.9,618.8z"/>
    <path id="path3250" fill="#CB625E" d="M-468.2,979.7c0.4-0.8,170.7-257.5,378.3-570.4l377.5-569
      l8.5,12.7c8.1,12.2,742.9,1119.8,746.5,1125.4l1.8,2.7H287.7C-363.7,981.1-468.8,980.9-468.2,979.7L-468.2,979.7z M673.9,793.8
      c-0.8-1.2-78.8-118.8-173.3-261.3c-94.5-142.4-181.1-273-192.4-290.1l-20.6-31.1l-192,289.4C-10,660-97.2,791.6-98.2,793.2
      l-1.8,2.9h387.7h387.7L673.9,793.8L673.9,793.8z M-21.7,756.1c0.4-1.1,309.3-466.9,309.4-466.7c9.4,13.9,309.4,466.8,309.4,467.1
      c0,0.3-139.3,0.5-309.6,0.5C87.8,757.1-21.9,756.7-21.7,756.1L-21.7,756.1z M535.1,725.4c0-1.7-247.4-373.3-248.1-372.7
      c-0.4,0.4-52.7,79.1-116.1,174.8C107.5,623.3,51.8,707.1,47.3,713.8l-8.2,12.2h248C423.5,726.1,535.1,725.8,535.1,725.4z
       M89.8,699.9c2.7-4.4,196.7-296.5,197.3-297.1c0.4-0.4,45,65.9,99.1,147.5c54.1,81.6,98.8,148.9,99.3,149.6
      c0.7,1-39,1.3-197.7,1.3C132.6,701.1,89.2,700.8,89.8,699.9z M414.1,664.6c0-0.3-119.6-181.3-126.4-191.2
      c-0.2-0.2-126,189.7-126.4,190.8c-0.2,0.5,51.8,0.9,126.3,0.9C357.2,665.1,414.1,664.9,414.1,664.6L414.1,664.6z"/>
    <path id="path3248" fill="#862DA1" d="M-468.2,979.7c0.4-0.8,170.7-257.5,378.3-570.4l377.5-569
      l8.5,12.7c8.1,12.2,742.9,1119.8,746.5,1125.4l1.8,2.7H287.7C-363.7,981.1-468.8,980.9-468.2,979.7L-468.2,979.7z M673.9,793.8
      c-0.8-1.2-78.8-118.8-173.3-261.3c-94.5-142.4-181.1-273-192.4-290.1l-20.6-31.1l-192,289.4C-10,660-97.2,791.6-98.2,793.2
      l-1.8,2.9h387.7h387.7L673.9,793.8L673.9,793.8z M-21.7,756.1c0.4-1.1,309.3-466.9,309.4-466.7c9.4,13.9,309.4,466.8,309.4,467.1
      c0,0.3-139.3,0.5-309.6,0.5C87.8,757.1-21.9,756.7-21.7,756.1L-21.7,756.1z M535.1,725.4c0-1.7-247.4-373.3-248.1-372.7
      c-0.4,0.4-52.7,79.1-116.1,174.8C107.5,623.3,51.8,707.1,47.3,713.8l-8.2,12.2h248C423.5,726.1,535.1,725.8,535.1,725.4z"/>
    <path id="path3246" fill="#202CDA" d="M-468.2,979.7c0.4-0.8,170.7-257.5,378.3-570.4l377.5-569
      l8.5,12.7c8.1,12.2,742.9,1119.8,746.5,1125.4l1.8,2.7H287.7C-363.7,981.1-468.8,980.9-468.2,979.7L-468.2,979.7z M673.9,793.8
      c-0.8-1.2-78.8-118.8-173.3-261.3c-94.5-142.4-181.1-273-192.4-290.1l-20.6-31.1l-192,289.4C-10,660-97.2,791.6-98.2,793.2
      l-1.8,2.9h387.7h387.7L673.9,793.8L673.9,793.8z"/>
    <path id="path3244" fill="#ED0D1A" d="M-468.2,979.7c0.4-0.8,170.7-257.5,378.3-570.4l377.5-569
      l8.5,12.7c8.1,12.2,742.9,1119.8,746.5,1125.4l1.8,2.7H287.7C-363.7,981.1-468.8,980.9-468.2,979.7L-468.2,979.7z M886.3,894.8
      c-3.8-5.6-140-211-302.7-456.3S287.8-7.5,287.8-7.6c-0.1-0.1-485.1,730.8-573.8,864.8l-31.7,47.9h605.5h605.5L886.3,894.8
      L886.3,894.8z M-195.9,843.5c0-0.3,108.8-164.6,241.7-365l241.7-364.4l17.1,25.7c51.8,77.7,466.5,703.2,466.5,703.7
      c0,0.3-217.6,0.5-483.5,0.5S-195.9,843.8-195.9,843.5L-195.9,843.5z M673.9,793.8c-0.8-1.2-78.8-118.8-173.3-261.3
      c-94.5-142.4-181.1-273-192.4-290.1l-20.6-31.1l-192,289.4C-10,660-97.2,791.6-98.2,793.2l-1.8,2.9h387.7h387.7L673.9,793.8
      L673.9,793.8z"/>
    <path id="path3242" fill="#0CA13C" d="M-468.2,979.7c0.4-0.8,170.7-257.5,378.3-570.4l377.5-569
      l8.5,12.7c8.1,12.2,742.9,1119.8,746.5,1125.4l1.8,2.7H287.7C-363.7,981.1-468.8,980.9-468.2,979.7L-468.2,979.7z M886.3,894.8
      c-3.8-5.6-140-211-302.7-456.3S287.8-7.5,287.8-7.6c-0.1-0.1-485.1,730.8-573.8,864.8l-31.7,47.9h605.5h605.5L886.3,894.8
      L886.3,894.8z"/>
    <path id="path3023" fill="#93FBFE" d="M287.1,593.5c-2.9,3-5,6.7-7.2,10.3
      c-0.7,2,2.2,1.7,3.4,1.7c3.9,0,7.8,0.3,11.7-0.1c1.1-1.4-1-2.8-1.4-4.1c-1.9-2.5-2.9-5.7-5.5-7.6
      C287.8,593.4,287.5,593.3,287.1,593.5L287.1,593.5z"/>
  </g>
</g>
</svg>
